<svg width="385" height="113" viewBox="0 0 385 113" fill="none" xmlns="http://www.w3.org/2000/svg">
<rect x="1.61088" y="20.9414" width="381.778" height="90.2092" rx="14.4979" fill="#262623" stroke="#262623" stroke-width="3.22176"/>
<rect x="1.61088" y="1.61088" width="381.778" height="90.2092" rx="14.4979" fill="#6AFF49" stroke="#262623" stroke-width="3.22176"/>
<path d="M54.0477 24.6296H69.1255V67.3115H83.7394V80.6109H54.0477V24.6296ZM87.8006 80.6109V24.6296H118.575V37.929H102.647V45.9705H117.415V58.6514H102.647V67.3115H118.73V80.6109H87.8006ZM132.112 37.929H121.055V24.6296H158.247V37.929H147.19V80.6109H132.112V37.929ZM175.164 26.2534C174.7 28.0576 174.108 30.0164 173.386 32.1299C172.664 34.1918 171.891 36.2795 171.066 38.393C170.242 40.4549 169.391 42.4395 168.515 44.3468H160.241C160.602 42.8003 160.963 41.2023 161.324 39.5528C161.685 37.9033 162.02 36.2537 162.329 34.6042C162.69 32.9031 162.999 31.2793 163.257 29.7329C163.566 28.1864 163.824 26.7431 164.03 25.4028H174.623L175.164 26.2534ZM178.01 61.435C183.268 65.997 189.608 68.162 193.087 68.162C195.716 68.162 197.108 67.0795 197.108 64.9145C197.108 62.8268 195.871 61.7443 193.397 60.2751C190.227 58.4194 185.355 56.409 182.185 53.4708C179.247 50.6872 177.236 46.9757 177.236 40.9446C177.236 31.1247 183.731 24.011 194.866 24.011C200.433 24.011 206.078 25.7121 209.712 28.0318V41.9498C204.918 38.393 199.428 37.0785 196.49 37.0785C193.861 37.0785 192.392 38.161 192.392 40.094C192.392 42.0271 193.474 43.0323 196.18 44.5787C199.428 46.4345 204.145 48.4448 207.315 51.3058C210.33 54.0894 212.186 57.9555 212.186 63.9866C212.186 74.5797 205.072 81.2294 194.325 81.2294C187.907 81.2294 181.798 79.1417 178.01 76.2808V61.435ZM247.33 48.7541H265.268V78.4458C261.943 80.2243 257.072 81.2294 252.278 81.2294C236.041 81.2294 227.458 70.1724 227.458 53.9347V52.3883C227.458 35.2228 236.504 24.011 252.665 24.011C257.304 24.011 261.557 25.0935 264.727 27.3359V41.0992C261.943 38.9342 258.541 37.5424 254.598 37.5424C246.17 37.5424 242.922 43.7282 242.922 52.9295V53.0842C242.922 61.5896 244.933 67.93 252.201 68.394V60.8937H247.33V48.7541ZM289.709 81.2294C274.94 81.2294 269.064 70.0177 269.064 53.7801V51.4604C269.064 35.2228 274.94 24.011 289.709 24.011C304.477 24.011 310.354 35.1454 310.354 51.4604V53.7801C310.354 70.0177 304.477 81.2294 289.709 81.2294ZM289.709 67.93C294.348 67.93 294.967 61.5896 294.967 53.0069V52.2336C294.967 43.6509 294.348 37.3105 289.709 37.3105C285.069 37.3105 284.451 43.6509 284.451 52.2336V53.0069C284.451 61.5896 285.069 67.93 289.709 67.93ZM327.54 62.2855H318.339L316.405 25.4028H329.473L327.54 62.2855ZM316.251 75.1983C316.251 72.8271 316.895 71.1776 318.184 70.2497C319.473 69.2703 321.045 68.7806 322.901 68.7806C324.705 68.7806 326.251 69.2703 327.54 70.2497C328.829 71.1776 329.473 72.8271 329.473 75.1983C329.473 77.4664 328.829 79.116 327.54 80.1469C326.251 81.1264 324.705 81.6161 322.901 81.6161C321.045 81.6161 319.473 81.1264 318.184 80.1469C316.895 79.116 316.251 77.4664 316.251 75.1983Z" fill="#262623"/>
<path d="M126.507 14.8951H123.688C123.451 15.5942 123.304 15.9776 123.304 16.2257C123.304 16.6767 123.879 16.5076 123.879 16.9812C123.879 17.2856 123.688 17.4435 123.214 17.4435H121.951C121.59 17.4435 121.41 17.3082 121.41 16.9925C121.41 16.5978 121.951 16.5189 122.019 16.2708C122.222 15.6168 123.789 11.2529 124.297 10.2042C124.669 9.43744 124.883 9.18937 125.763 9.18937C126.766 9.18937 126.823 9.24575 127.217 10.0238C127.398 10.3846 129.608 15.8536 129.72 16.2708C129.845 16.688 130.25 16.5414 130.25 17.015C130.25 17.3308 130.002 17.4435 129.574 17.4435H127.251C126.755 17.4435 126.473 17.2856 126.473 17.015C126.473 16.6655 126.913 16.6316 126.913 16.4399C126.913 16.2708 126.8 16.0002 126.507 14.8951ZM124.049 13.7675H126.09L125.109 11.174L124.049 13.7675ZM136.915 13.6998V10.9033C136.915 9.83211 136.216 10.2493 136.216 9.65169C136.216 9.32468 136.351 9.18937 136.915 9.18937H138.042C138.606 9.18937 138.741 9.32468 138.741 9.65169C138.741 10.2493 138.042 9.83211 138.042 10.9033V16.6767C138.042 17.2405 137.952 17.4435 137.208 17.4435C136.328 17.4435 136.283 17.4097 135.967 16.9812L132.314 11.9859H132.291V15.7295C132.291 16.9248 133.081 16.4061 133.081 17.015C133.081 17.2856 132.923 17.4435 132.291 17.4435H131.164C130.532 17.4435 130.374 17.2856 130.374 17.015C130.374 16.4061 131.164 16.9248 131.164 15.7295V11.174C131.164 9.68552 130.217 10.3846 130.217 9.67424C130.217 9.36979 130.284 9.18937 130.916 9.18937H133.013C133.464 9.18937 133.622 9.25703 133.893 9.62914L136.892 13.6998H136.915ZM147.705 14.8951H144.886C144.649 15.5942 144.502 15.9776 144.502 16.2257C144.502 16.6767 145.077 16.5076 145.077 16.9812C145.077 17.2856 144.886 17.4435 144.412 17.4435H143.149C142.788 17.4435 142.608 17.3082 142.608 16.9925C142.608 16.5978 143.149 16.5189 143.217 16.2708C143.42 15.6168 144.987 11.2529 145.494 10.2042C145.867 9.43744 146.081 9.18937 146.96 9.18937C147.964 9.18937 148.02 9.24575 148.415 10.0238C148.595 10.3846 150.806 15.8536 150.918 16.2708C151.042 16.688 151.448 16.5414 151.448 17.015C151.448 17.3308 151.2 17.4435 150.772 17.4435H148.449C147.953 17.4435 147.671 17.2856 147.671 17.015C147.671 16.6655 148.111 16.6316 148.111 16.4399C148.111 16.2708 147.998 16.0002 147.705 14.8951ZM145.246 13.7675H147.287L146.306 11.174L145.246 13.7675ZM157.571 9.18937H159.037C159.488 9.18937 159.669 9.30213 159.669 9.60659C159.669 10.2042 159.003 9.9336 159.003 10.52C159.003 11.6025 159.127 13.1586 159.127 14.0832C159.127 15.8874 158.789 17.6239 155.496 17.6239C153.004 17.6239 151.832 16.6542 151.832 13.9141C151.832 12.9218 151.978 11.1852 151.978 10.4974C151.978 9.89977 151.403 10.1591 151.403 9.66297C151.403 9.30213 151.617 9.18937 152.305 9.18937H154.662C155.271 9.18937 155.406 9.34724 155.406 9.66297C155.406 10.114 154.752 9.89977 154.752 10.4974C154.752 10.7229 154.538 13.0458 154.538 13.9705C154.538 15.1545 154.73 16.6091 156.218 16.6091C157.436 16.6091 157.876 15.8423 157.876 14.2411C157.876 13.2037 157.729 11.501 157.729 10.6778C157.729 9.9336 156.94 10.2042 156.94 9.60659C156.94 9.32468 157.098 9.18937 157.571 9.18937ZM160.14 13.339C160.14 10.7906 162.53 9.00895 164.943 9.00895C165.868 9.00895 166.95 9.27958 167.717 9.80956C168.123 10.0915 168.179 10.2493 168.179 11.3882C168.179 11.7378 167.931 11.9295 167.582 11.9295C166.714 11.9295 167.018 10.0238 165.124 10.0238C163.703 10.0238 162.959 11.3544 162.959 13.1924C162.959 15.5717 164.041 16.4061 165.327 16.4061C166.804 16.4061 167.277 15.053 167.898 15.053C168.179 15.053 168.382 15.2898 168.382 15.5604C168.382 16.6091 166.375 17.6239 165.112 17.6239C162.158 17.6239 160.14 15.9212 160.14 13.339ZM169.648 9.18937H175.489C175.726 9.18937 176.065 9.21192 176.166 9.36979C176.279 9.53893 176.471 10.4072 176.471 10.6102C176.471 10.9936 176.234 11.2304 175.895 11.2304C175.23 11.2304 175.377 10.2042 174.328 10.2042C174.024 10.2042 173.922 10.3057 173.922 10.6891V16.0678C173.922 16.6767 174.52 16.4061 174.52 16.9925C174.52 17.2744 174.373 17.4435 173.798 17.4435H171.34C170.765 17.4435 170.618 17.2744 170.618 16.9925C170.618 16.4061 171.216 16.6767 171.216 16.0678V10.6891C171.216 10.3057 171.114 10.2042 170.81 10.2042C169.761 10.2042 169.908 11.2304 169.243 11.2304C168.904 11.2304 168.667 10.9936 168.667 10.6102C168.667 10.4072 168.859 9.53893 168.972 9.36979C169.073 9.21192 169.412 9.18937 169.648 9.18937ZM180.013 10.5651V16.0678C180.013 16.6767 180.611 16.4061 180.611 16.9925C180.611 17.2744 180.464 17.4435 179.889 17.4435H177.431C176.856 17.4435 176.71 17.2744 176.71 16.9925C176.71 16.4061 177.307 16.6767 177.307 16.0678V10.5651C177.307 9.95615 176.71 10.2268 176.71 9.64042C176.71 9.35851 176.856 9.18937 177.431 9.18937H179.889C180.464 9.18937 180.611 9.35851 180.611 9.64042C180.611 10.2268 180.013 9.95615 180.013 10.5651ZM185.819 9.00895C188.289 9.00895 190.555 10.6102 190.555 13.3164C190.555 16.0227 188.289 17.6239 185.819 17.6239C183.35 17.6239 181.083 16.0227 181.083 13.3164C181.083 10.6102 183.35 9.00895 185.819 9.00895ZM183.902 13.3164C183.902 15.4364 184.511 16.6091 185.819 16.6091C187.127 16.6091 187.736 15.4364 187.736 13.3164C187.736 11.1965 187.127 10.0238 185.819 10.0238C184.511 10.0238 183.902 11.1965 183.902 13.3164ZM197.689 13.6998V10.9033C197.689 9.83211 196.99 10.2493 196.99 9.65169C196.99 9.32468 197.125 9.18937 197.689 9.18937H198.817C199.381 9.18937 199.516 9.32468 199.516 9.65169C199.516 10.2493 198.817 9.83211 198.817 10.9033V16.6767C198.817 17.2405 198.727 17.4435 197.982 17.4435C197.103 17.4435 197.058 17.4097 196.742 16.9812L193.088 11.9859H193.066V15.7295C193.066 16.9248 193.855 16.4061 193.855 17.015C193.855 17.2856 193.697 17.4435 193.066 17.4435H191.938C191.307 17.4435 191.149 17.2856 191.149 17.015C191.149 16.4061 191.938 16.9248 191.938 15.7295V11.174C191.938 9.68552 190.991 10.3846 190.991 9.67424C190.991 9.36979 191.059 9.18937 191.69 9.18937H193.788C194.239 9.18937 194.397 9.25703 194.667 9.62914L197.667 13.6998H197.689ZM207.07 10.5651V16.0678C207.07 16.6767 207.667 16.4061 207.667 16.9925C207.667 17.2744 207.521 17.4435 206.946 17.4435H204.487C203.912 17.4435 203.766 17.2744 203.766 16.9925C203.766 16.4061 204.363 16.6767 204.363 16.0678V10.5651C204.363 9.95615 203.766 10.2268 203.766 9.64042C203.766 9.35851 203.912 9.18937 204.487 9.18937H206.946C207.521 9.18937 207.667 9.35851 207.667 9.64042C207.667 10.2268 207.07 9.95615 207.07 10.5651ZM215.796 14.4779C215.796 16.6091 213.687 17.6239 211.816 17.6239C210 17.6239 208.094 16.6993 208.094 15.6168C208.094 15.2108 208.399 14.85 208.816 14.85C209.842 14.85 209.628 16.5189 211.646 16.5189C212.594 16.5189 213.09 15.9776 213.09 15.4815C213.09 13.9479 208.399 15.0304 208.399 11.8956C208.399 10.2268 209.887 9.00895 212.052 9.00895C213.225 9.00895 213.823 9.21192 214.668 9.57276C215.266 9.83211 215.277 10.0576 215.277 11.0612C215.277 11.4333 215.142 11.7378 214.713 11.7378C213.868 11.7378 214.262 9.9336 212.424 9.9336C211.534 9.9336 211.105 10.3395 211.105 10.8244C211.105 12.4933 215.796 11.5235 215.796 14.4779ZM220.792 16.0678V10.5651C220.792 9.95615 220.195 10.2268 220.195 9.64042C220.195 9.35851 220.341 9.18937 220.916 9.18937H223.374C223.95 9.18937 224.096 9.35851 224.096 9.64042C224.096 10.2268 223.498 9.95615 223.498 10.5651V15.7408C223.498 16.3948 223.623 16.4287 224.446 16.4287C225.833 16.4287 225.585 15.1545 226.419 15.1545C226.701 15.1545 226.96 15.3461 226.96 15.6506C226.96 15.9663 226.69 16.8233 226.543 17.1165C226.408 17.3871 226.284 17.4435 225.821 17.4435H220.916C220.341 17.4435 220.195 17.2744 220.195 16.9925C220.195 16.4061 220.792 16.6767 220.792 16.0678ZM230.294 10.5651V16.0678C230.294 16.6767 230.891 16.4061 230.891 16.9925C230.891 17.2744 230.745 17.4435 230.17 17.4435H227.711C227.136 17.4435 226.99 17.2744 226.99 16.9925C226.99 16.4061 227.587 16.6767 227.587 16.0678V10.5651C227.587 9.95615 226.99 10.2268 226.99 9.64042C226.99 9.35851 227.136 9.18937 227.711 9.18937H230.17C230.745 9.18937 230.891 9.35851 230.891 9.64042C230.891 10.2268 230.294 9.95615 230.294 10.5651ZM231.589 9.18937H234.115C234.611 9.18937 234.837 9.32468 234.837 9.65169C234.837 10.1704 234.205 10.0238 234.205 10.5087C234.205 11.3093 234.724 12.3918 236.19 15.5942C237.701 12.1437 237.791 11.3093 237.791 10.7116C237.791 10.1027 236.945 10.2268 236.945 9.62914C236.945 9.27958 237.182 9.18937 237.938 9.18937H238.727C239.505 9.18937 239.776 9.27958 239.776 9.70807C239.776 10.1817 239.324 10.114 239.2 10.4861C238.513 12.5722 237.317 16.1806 236.573 17.015C236.257 17.3759 236.145 17.4435 235.243 17.4435C234.656 17.4435 234.34 17.4548 233.799 16.5414C233.213 15.5604 232.243 13.4292 231.544 10.8131C231.318 9.96742 230.958 10.0576 230.958 9.57276C230.958 9.34724 231.183 9.18937 231.589 9.18937ZM240.416 16.0678V10.5651C240.416 9.95615 239.818 10.2268 239.818 9.64042C239.818 9.35851 239.965 9.18937 240.54 9.18937H246.042C246.674 9.18937 246.956 9.34724 246.956 9.86594V10.3846C246.956 10.8582 246.674 11.0612 246.415 11.0612C245.535 11.0612 246.291 10.2042 244.148 10.2042C243.28 10.2042 243.122 10.2832 243.122 11.0612V12.4143H244.509C245.4 12.4143 245.231 11.952 245.704 11.952C246.02 11.952 246.178 12.1437 246.178 12.9669C246.178 13.79 246.02 14.0043 245.704 14.0043C245.219 14.0043 245.4 13.542 244.509 13.542H243.122V15.2447C243.122 16.3159 243.336 16.4287 244.374 16.4287C246.448 16.4287 245.873 15.38 246.685 15.38C247.046 15.38 247.26 15.6168 247.26 15.9776C247.26 16.1806 247.147 16.9812 247.012 17.218C246.899 17.4097 246.663 17.4435 246.178 17.4435H240.54C239.965 17.4435 239.818 17.2744 239.818 16.9925C239.818 16.4061 240.416 16.6767 240.416 16.0678ZM249.633 17.6239C248.731 17.6239 248.257 17.0827 248.257 16.5978C248.257 16.1129 248.731 15.5717 249.633 15.5717C250.535 15.5717 251.009 16.1129 251.009 16.5978C251.009 17.0827 250.535 17.6239 249.633 17.6239ZM251.2 10.0125C251.2 10.6553 250.772 12.1775 250.355 14.523C250.276 14.9853 250.118 15.1883 249.633 15.1883C249.148 15.1883 248.99 14.9853 248.911 14.523C248.494 12.1775 248.066 10.6553 248.066 10.0125C248.066 9.32468 248.449 9.00895 249.633 9.00895C250.817 9.00895 251.2 9.32468 251.2 10.0125ZM254.027 17.6239C253.125 17.6239 252.651 17.0827 252.651 16.5978C252.651 16.1129 253.125 15.5717 254.027 15.5717C254.929 15.5717 255.403 16.1129 255.403 16.5978C255.403 17.0827 254.929 17.6239 254.027 17.6239ZM255.594 10.0125C255.594 10.6553 255.166 12.1775 254.748 14.523C254.67 14.9853 254.512 15.1883 254.027 15.1883C253.542 15.1883 253.384 14.9853 253.305 14.523C252.888 12.1775 252.459 10.6553 252.459 10.0125C252.459 9.32468 252.843 9.00895 254.027 9.00895C255.211 9.00895 255.594 9.32468 255.594 10.0125ZM258.421 17.6239C257.518 17.6239 257.045 17.0827 257.045 16.5978C257.045 16.1129 257.518 15.5717 258.421 15.5717C259.323 15.5717 259.796 16.1129 259.796 16.5978C259.796 17.0827 259.323 17.6239 258.421 17.6239ZM259.988 10.0125C259.988 10.6553 259.559 12.1775 259.142 14.523C259.063 14.9853 258.905 15.1883 258.421 15.1883C257.936 15.1883 257.778 14.9853 257.699 14.523C257.282 12.1775 256.853 10.6553 256.853 10.0125C256.853 9.32468 257.237 9.00895 258.421 9.00895C259.605 9.00895 259.988 9.32468 259.988 10.0125ZM262.814 17.6239C261.912 17.6239 261.439 17.0827 261.439 16.5978C261.439 16.1129 261.912 15.5717 262.814 15.5717C263.716 15.5717 264.19 16.1129 264.19 16.5978C264.19 17.0827 263.716 17.6239 262.814 17.6239ZM264.382 10.0125C264.382 10.6553 263.953 12.1775 263.536 14.523C263.457 14.9853 263.299 15.1883 262.814 15.1883C262.329 15.1883 262.172 14.9853 262.093 14.523C261.675 12.1775 261.247 10.6553 261.247 10.0125C261.247 9.32468 261.63 9.00895 262.814 9.00895C263.998 9.00895 264.382 9.32468 264.382 10.0125Z" fill="#222220"/>
</svg>
