<svg width="162" height="122" viewBox="0 0 162 122" fill="none" xmlns="http://www.w3.org/2000/svg">
<path d="M140.058 36.5369L156.487 38.5918L144.93 49.0287L143.816 50.0347L145.171 50.5998L159.182 56.4448L144.216 64.1392L142.925 64.8026L143.954 65.706L154.305 74.7915L137.274 78.9606L136.019 79.2677L136.551 80.3396L142.271 91.883L124.799 92.0259L123.694 92.035L123.729 93.0709L124.168 106.045L108.048 102.054L107.111 101.822L106.774 102.701L101.734 115.833L88.6788 108.083L87.9029 107.623L87.3051 108.328L77.2123 120.235L68.585 109.562L68.0034 108.842L67.1834 109.39L53.0885 118.804L49.6934 106.369L49.4204 105.369L48.366 105.749L31.7852 111.72L33.8132 98.7912L34.0024 97.585L32.716 97.7336L15.3649 99.7377L22.5005 87.5146L23.2104 86.2984L21.7855 86.1202L5.35563 84.0653L16.9131 73.6284L18.0271 72.6224L16.6724 72.0573L2.66143 66.2123L17.6274 58.5179L18.9178 57.8545L17.8887 56.9511L7.53814 47.8656L24.5695 43.6965L25.8237 43.3894L25.2925 42.3175L19.5721 30.7741L37.0436 30.6312L38.1486 30.6221L38.1136 29.5862L37.6751 16.6123L53.7953 20.6035L54.7317 20.8354L55.0692 19.956L60.1089 6.82381L73.1643 14.5737L73.9401 15.0343L74.538 14.329L84.6308 2.42197L93.2581 13.0952L93.8397 13.8147L94.6597 13.267L108.755 3.8535L112.15 16.2878L112.423 17.2878L113.477 16.9081L130.058 10.9376L128.03 23.8659L127.841 25.0721L129.127 24.9235L146.478 22.9194L139.343 35.1425L138.633 36.3587L140.058 36.5369Z" fill="#F5F5E8" stroke="#262623" stroke-width="2"/>
</svg>
