<svg width="187" height="185" viewBox="0 0 187 185" fill="none" xmlns="http://www.w3.org/2000/svg">
<path d="M149.187 77.3304L164.203 79.2601L153.417 88.9459L152.308 89.9417L153.648 90.5148L166.392 95.9616L152.505 103.103L151.236 103.756L152.234 104.659L161.579 113.122L145.838 116.983L144.61 117.284L145.108 118.344L150.169 129.104L134.086 129.212L132.999 129.22L133.014 130.239L133.194 142.335L118.431 138.593L117.502 138.358L117.156 139.227L112.29 151.463L100.425 144.23L99.6499 143.758L99.0445 144.465L89.5573 155.542L81.8244 145.609L81.2463 144.867L80.4117 145.423L67.3038 154.161L64.4066 142.614L64.1488 141.587L63.0719 141.976L47.7606 147.5L49.8406 135.508L50.0528 134.284L48.7444 134.435L32.8101 136.271L39.5607 124.933L40.2853 123.716L38.8521 123.532L23.8355 121.602L34.6222 111.916L35.7312 110.92L34.3904 110.347L21.6469 104.9L35.534 97.7586L36.8023 97.1064L35.8048 96.203L26.4594 87.7403L42.2009 83.8788L43.4287 83.5776L42.9303 82.5181L37.8694 71.7585L53.9532 71.6497L55.0395 71.6423L55.0244 70.6235L54.845 58.5267L69.6079 62.2689L70.5371 62.5044L70.883 61.6347L75.7485 49.3989L87.6135 56.6316L88.3889 57.1043L88.9943 56.3975L98.4815 45.3204L106.214 55.2529L106.792 55.9955L107.627 55.4391L120.735 46.7013L123.632 58.2476L123.89 59.2748L124.967 58.8863L140.278 53.3623L138.198 65.3544L137.986 66.5781L139.294 66.4273L155.229 64.5912L148.478 75.9292L147.753 77.1462L149.187 77.3304Z" fill="#262623" stroke="#262623" stroke-width="2"/>
<path d="M146.76 60.1846L161.821 62.0682L151.234 71.6286L150.12 72.6346L151.474 73.1997L164.309 78.5538L150.59 85.6071L149.299 86.2705L150.328 87.1739L159.81 95.497L144.18 99.3231L142.926 99.6301L143.457 100.702L148.702 111.286L132.65 111.418L131.545 111.427L131.58 112.463L131.982 124.374L117.16 120.704L116.223 120.472L115.886 121.352L111.253 133.423L99.2466 126.295L98.4707 125.835L97.8729 126.54L88.5907 137.491L80.6609 127.68L80.0793 126.961L79.2593 127.509L66.299 136.164L63.1821 124.749L62.909 123.749L61.8546 124.128L46.621 129.614L48.4804 117.76L48.6696 116.554L47.3833 116.703L31.4607 118.542L37.9973 107.345L38.7073 106.128L37.2824 105.95L22.2221 104.067L32.809 94.5062L33.9231 93.5002L32.5684 92.9351L19.7341 87.581L33.4531 80.5277L34.7434 79.8643L33.7143 78.9609L24.2323 70.6378L39.8623 66.8117L41.1165 66.5047L40.5853 65.4327L35.3402 54.8486L51.3929 54.7172L52.4979 54.7082L52.4629 53.6723L52.0603 41.7605L66.8831 45.4305L67.8196 45.6624L68.157 44.783L72.7895 32.7121L84.7962 39.8394L85.572 40.3L86.1699 39.5947L95.452 28.6441L103.382 38.4544L103.963 39.1739L104.783 38.6262L117.744 29.9705L120.861 41.3862L121.134 42.3862L122.188 42.0065L137.422 36.5211L135.562 48.3745L135.373 49.5807L136.659 49.4321L152.582 47.5929L146.045 58.7902L145.335 60.0063L146.76 60.1846Z" fill="#6AFF49" stroke="#262623" stroke-width="2"/>
</svg>
