<svg width="162" height="124" viewBox="0 0 162 124" fill="none" xmlns="http://www.w3.org/2000/svg">
<path d="M140.678 37.0554L157.061 39.1607L145.288 49.7325L144.179 50.7283L145.52 51.3014L159.43 57.247L144.284 65.0362L143.016 65.6885L144.014 66.5918L154.213 75.8279L137.064 80.0346L135.836 80.3358L136.335 81.3953L141.853 93.1269L124.35 93.2453L123.264 93.2527L123.279 94.2715L123.474 107.444L107.421 103.375L106.491 103.139L106.146 104.009L100.853 117.318L87.9513 109.454L87.1759 108.981L86.5705 109.688L76.255 121.732L67.841 110.925L67.2629 110.182L66.4283 110.739L52.1719 120.242L49.0157 107.664L48.758 106.637L47.6811 107.025L31.0139 113.038L33.2826 99.9581L33.4948 98.7344L32.1864 98.8852L14.821 100.886L22.1895 88.5103L22.9142 87.2933L21.481 87.1091L5.09836 85.0038L16.8717 74.432L17.9807 73.4362L16.6399 72.8632L2.72924 66.9175L17.8751 59.1284L19.1434 58.4761L18.1458 57.5727L7.94642 48.3367L25.0953 44.1299L26.3231 43.8288L25.8248 42.7692L20.3067 31.0377L37.8091 30.9192L38.8954 30.9119L38.8803 29.893L38.685 16.7207L54.7387 20.79L55.668 21.0256L56.0139 20.1559L61.3065 6.8461L74.2081 14.7108L74.9836 15.1835L75.5889 14.4767L85.9045 2.43237L94.3184 13.2397L94.8965 13.9822L95.7311 13.4259L109.988 3.92248L113.144 16.5006L113.401 17.5279L114.478 17.1394L131.146 11.1262L128.877 24.2064L128.665 25.4301L129.973 25.2794L147.338 23.2784L139.97 35.6542L139.245 36.8713L140.678 37.0554Z" fill="#262623" stroke="#262623" stroke-width="2"/>
</svg>
