<svg width="150" height="113" viewBox="0 0 150 113" fill="none" xmlns="http://www.w3.org/2000/svg">
<path d="M129.76 33.1846L144.821 35.0682L134.234 44.6286L133.12 45.6346L134.474 46.1997L147.309 51.5538L133.59 58.6071L132.299 59.2705L133.328 60.1739L142.81 68.497L127.18 72.3231L125.926 72.6301L126.457 73.7021L131.702 84.2862L115.65 84.4176L114.545 84.4266L114.58 85.4625L114.982 97.3743L100.16 93.7042L99.2231 93.4724L98.8857 94.3518L94.2532 106.423L82.2466 99.2954L81.4707 98.8348L80.8729 99.5401L71.5907 110.491L63.6609 100.68L63.0793 99.9609L62.2593 100.509L49.299 109.164L46.1821 97.7486L45.909 96.7486L44.8546 97.1283L29.621 102.614L31.4804 90.7603L31.6696 89.5541L30.3833 89.7027L14.4607 91.5418L20.9973 80.3446L21.7073 79.1285L20.2824 78.9503L5.22212 77.0666L15.809 67.5062L16.9231 66.5002L15.5684 65.9351L2.73414 60.581L16.4531 53.5277L17.7434 52.8643L16.7143 51.9609L7.23234 43.6378L22.8623 39.8117L24.1165 39.5047L23.5853 38.4327L18.3402 27.8486L34.3929 27.7172L35.4979 27.7082L35.4629 26.6723L35.0603 14.7605L49.8831 18.4305L50.8196 18.6624L51.157 17.783L55.7895 5.71208L67.7962 12.8394L68.572 13.3L69.1699 12.5947L78.452 1.64406L86.3818 11.4544L86.9634 12.1739L87.7834 11.6262L100.744 2.9705L103.861 14.3862L104.134 15.3862L105.188 15.0065L120.422 9.52107L118.562 21.3745L118.373 22.5807L119.659 22.4321L135.582 20.5929L129.045 31.7902L128.335 33.0063L129.76 33.1846Z" fill="#6AFF49" stroke="#262623" stroke-width="2"/>
</svg>
