<svg width="229" height="211" viewBox="0 0 229 211" fill="none" xmlns="http://www.w3.org/2000/svg">
<path d="M172.302 114.665L185.352 121.387L170.28 124.029L169.336 124.194L169.989 124.783L179.215 133.103L162.517 132.887L161.616 132.875L161.92 133.49L166.447 142.651L149.734 139.547L148.958 139.402L148.918 139.938L148.241 149.085L133.197 143.358L132.56 143.116L132.268 143.522L126.351 151.746L114.545 143.962L114.04 143.63L113.579 143.909L102.953 150.348L95.5992 141.316L95.2481 140.885L94.6491 141.052L80.3945 145.029L78.1874 135.688L78.0628 135.16L77.3217 135.211L60.926 136.336L63.9816 127.612L64.1819 127.04L63.303 126.946L46.4424 125.152L54.3828 117.853L54.9427 117.339L53.9894 117.066L38.3029 112.576L50.359 107.361L51.1924 107.001L50.3043 106.543L37.254 99.8217L52.3263 97.1797L53.2699 97.0143L52.6171 96.4256L43.3918 88.1055L60.0898 88.3215L60.9907 88.3331L60.6868 87.7181L56.1597 78.5572L72.8721 81.6618L73.6482 81.806L73.6879 81.2701L74.3654 72.1232L89.4089 77.8499L90.0458 78.0923L90.3381 77.6861L96.2549 69.4624L108.062 77.2464L108.566 77.5788L109.027 77.2993L119.653 70.8608L127.007 79.8926L127.358 80.3238L127.957 80.1567L142.212 76.179L144.419 85.5206L144.544 86.0481L145.285 85.9972L161.68 84.8719L158.625 93.5964L158.424 94.1684L159.303 94.262L176.164 96.0566L168.224 103.355L167.664 103.87L168.617 104.142L184.303 108.632L172.247 113.847L171.414 114.208L172.302 114.665Z" fill="#262623" stroke="#262623" stroke-width="1.23339"/>
<path d="M178.397 102.718L191.514 109.426L176.683 112.058L175.73 112.227L176.393 112.814L185.755 121.108L169.246 120.893L168.325 120.881L168.648 121.505L173.378 130.627L156.775 127.537L155.978 127.388L155.953 127.939L155.537 137.042L140.503 131.339L139.853 131.092L139.565 131.512L133.945 139.698L122.044 131.939L121.534 131.606L121.073 131.893L110.74 138.308L103.203 129.294L102.849 128.871L102.254 129.039L88.2494 133.007L85.8005 123.676L85.6656 123.162L84.9389 123.212L68.7199 124.336L71.5073 115.62L71.6865 115.06L70.8299 114.968L54.0609 113.176L61.727 105.891L62.2648 105.379L61.3319 105.113L45.6539 100.629L57.4433 95.4291L58.2676 95.0655L57.3868 94.6151L44.2693 87.9071L59.1008 85.2754L60.0533 85.1064L59.3905 84.5192L50.0286 76.2249L66.5371 76.4398L67.4589 76.4518L67.1357 75.8284L62.4058 66.7063L79.0081 69.7966L79.8055 69.945L79.8307 69.3938L80.2462 60.2911L95.2801 65.9945L95.9306 66.2413L96.2188 65.8214L101.838 57.635L113.74 65.3947L114.249 65.7269L114.711 65.4404L125.043 59.0253L132.581 68.0388L132.935 68.4623L133.529 68.2939L147.534 64.3264L149.983 73.6573L150.118 74.1713L150.845 74.121L167.064 72.9975L164.276 81.713L164.097 82.2734L164.954 82.3649L181.723 84.1574L174.056 91.4427L173.519 91.9538L174.452 92.2206L190.13 96.7044L178.34 101.904L177.516 102.268L178.397 102.718Z" fill="#6AFF49" stroke="#262623" stroke-width="1.23339"/>
</svg>
