<svg width="385" height="113" viewBox="0 0 385 113" fill="none" xmlns="http://www.w3.org/2000/svg">
<rect x="1.61088" y="18.6109" width="381.778" height="79.7782" rx="14.4979" fill="#262623" stroke="#262623" stroke-width="3.22176"/>
<rect x="1.61088" y="1.61088" width="381.778" height="79.7782" rx="14.4979" fill="#ED3A3A" stroke="#262623" stroke-width="3.22176"/>
<path d="M23.4378 40.1914H17.529V33.0843H37.4039V40.1914H31.4952V63H23.4378V40.1914ZM39.5852 63V33.0843H56.0305V40.1914H47.5186V44.4886H55.4107V51.2651H47.5186V55.893H56.1132V63H39.5852ZM71.0329 63L67.4381 52.6287H66.4051V63H58.389V33.0843H67.9339C70.8263 33.0843 73.1402 33.6628 75.041 35.3156C76.983 36.9684 78.0986 39.4889 78.0986 42.7119C78.0986 46.2241 76.7764 48.8272 74.5451 50.3561L79.4209 63H71.0329ZM67.4381 39.7782H66.4051V46.4307H67.4381C68.3884 46.4307 68.843 46.3067 69.3388 45.7282C69.8346 45.1498 70.0412 44.2407 70.0412 43.1251C70.0412 41.9268 69.7933 41.0178 69.3388 40.4806C68.8843 39.9434 68.3471 39.7782 67.4381 39.7782ZM80.9455 63V33.0843H88.0939L92.0193 42.1334L95.9447 33.0843H103.052V63H95.1596V47.4637L91.7714 54.6534L88.3831 47.4637V63H80.9455ZM105.708 52.7526C108.518 55.1905 111.906 56.3475 113.765 56.3475C115.17 56.3475 115.914 55.769 115.914 54.612C115.914 53.4964 115.253 52.9179 113.931 52.1328C112.236 51.1412 109.633 50.0668 107.939 48.4967C106.369 47.0092 105.295 45.0258 105.295 41.8028C105.295 36.5552 108.766 32.7538 114.716 32.7538C117.691 32.7538 120.707 33.6628 122.649 34.9024V42.34C120.087 40.4393 117.153 39.7368 115.583 39.7368C114.178 39.7368 113.393 40.3153 113.393 41.3483C113.393 42.3813 113.972 42.9185 115.418 43.7449C117.153 44.7366 119.674 45.8109 121.368 47.3397C122.98 48.8272 123.971 50.8932 123.971 54.1162C123.971 59.777 120.17 63.3306 114.426 63.3306C110.997 63.3306 107.733 62.2149 105.708 60.6861V52.7526ZM144.156 33.0843C145.754 33.0843 147.173 33.3322 148.412 33.8281C149.652 34.3239 150.63 35.0539 151.346 36.018C152.062 36.9546 152.42 38.1116 152.42 39.4889C152.42 41.3896 151.856 42.9873 150.726 44.282C149.597 45.5767 148.192 46.7061 146.512 47.6703L152.255 53.2485C152.806 52.3119 153.288 51.334 153.701 50.3148C154.115 49.268 154.459 48.2212 154.734 47.1744H161.139C160.726 48.7171 160.12 50.3699 159.321 52.1328C158.522 53.8958 157.503 55.5486 156.263 57.0912L162.337 63H154.734L152.42 60.7274C151.814 61.1406 151.181 61.5125 150.52 61.843C149.859 62.1736 149.17 62.4628 148.454 62.7108C147.737 62.9311 146.98 63.0964 146.181 63.2066C145.382 63.3443 144.556 63.4132 143.702 63.4132C141.471 63.4132 139.556 63.0689 137.958 62.3802C136.361 61.664 135.135 60.6723 134.281 59.4052C133.427 58.138 133 56.678 133 55.0252C133 53.6204 133.207 52.4221 133.62 51.4304C134.061 50.4112 134.68 49.5297 135.479 48.7859C136.306 48.0146 137.284 47.3122 138.413 46.6786C137.697 45.8522 137.118 45.0809 136.677 44.3647C136.264 43.6209 135.961 42.8909 135.768 42.1747C135.603 41.4585 135.521 40.701 135.521 39.9021C135.521 38.4972 135.879 37.2852 136.595 36.266C137.339 35.2467 138.358 34.4617 139.653 33.9107C140.975 33.3598 142.476 33.0843 144.156 33.0843ZM142.008 50.3561C141.484 50.7417 141.03 51.1412 140.644 51.5544C140.286 51.9676 139.997 52.4083 139.776 52.8766C139.584 53.3449 139.487 53.8683 139.487 54.4468C139.487 55.6313 139.928 56.5679 140.809 57.2565C141.691 57.9176 142.793 58.2482 144.115 58.2482C144.997 58.2482 145.823 58.138 146.594 57.9176C147.366 57.6973 148.068 57.3943 148.702 57.0086L142.008 50.3561ZM144.115 37.8361C143.426 37.8361 142.765 38.0152 142.132 38.3733C141.526 38.7038 141.223 39.3512 141.223 40.3153C141.223 41.004 141.388 41.6651 141.719 42.2987C142.077 42.9323 142.545 43.5796 143.123 44.2407C144.28 43.6071 145.162 42.9736 145.768 42.34C146.401 41.7064 146.718 40.9764 146.718 40.15C146.718 39.3236 146.443 38.7314 145.892 38.3733C145.341 38.0152 144.749 37.8361 144.115 37.8361ZM187.663 62.1736C186.258 62.9587 184.44 63.3306 182.622 63.3306C174.358 63.3306 170.143 57.2978 170.143 48.3314V47.7529C170.143 38.7865 174.358 32.7538 182.622 32.7538C184.44 32.7538 186.258 33.1256 187.663 33.9107V41.0591C186.671 40.3566 185.473 39.9848 183.986 39.9848C179.812 39.9848 178.366 43.249 178.366 48.0008V48.0835C178.366 52.8353 179.812 56.0996 183.986 56.0996C185.473 56.0996 186.671 55.7277 187.663 55.0666V62.1736ZM199.899 63.3306C192.007 63.3306 188.867 57.3392 188.867 48.662V47.4224C188.867 38.7452 192.007 32.7538 199.899 32.7538C207.791 32.7538 210.931 38.7038 210.931 47.4224V48.662C210.931 57.3392 207.791 63.3306 199.899 63.3306ZM199.899 56.2235C202.378 56.2235 202.709 52.8353 202.709 48.2488V47.8356C202.709 43.249 202.378 39.8608 199.899 39.8608C197.42 39.8608 197.089 43.249 197.089 47.8356V48.2488C197.089 52.8353 197.42 56.2235 199.899 56.2235ZM213.339 63V33.0843H219.826L225.818 45.8522V33.0843H233.255V63H227.553L220.777 48.4554V63H213.339ZM236.46 63V33.043H245.096C249.642 33.043 252.617 34.6132 254.517 37.175C256.418 39.7368 257.244 43.2904 257.244 48.0008C257.244 52.7526 256.418 56.2648 254.517 58.8267C252.617 61.3885 249.642 63 245.096 63H236.46ZM244.518 55.893H245.179C246.584 55.893 247.576 55.1905 248.154 53.9509C248.732 52.7113 249.022 51.0172 249.022 48.0008C249.022 44.9845 248.774 43.2904 248.154 42.0508C247.534 40.8112 246.584 40.15 245.179 40.15H244.518V55.893ZM259.622 33.0843H267.68V63H259.622V33.0843ZM275.796 40.1914H269.888V33.0843H289.763V40.1914H283.854V63H275.796V40.1914ZM291.944 33.0843H300.001V63H291.944V33.0843ZM313.448 63.3306C305.556 63.3306 302.416 57.3392 302.416 48.662V47.4224C302.416 38.7452 305.556 32.7538 313.448 32.7538C321.34 32.7538 324.481 38.7038 324.481 47.4224V48.662C324.481 57.3392 321.34 63.3306 313.448 63.3306ZM313.448 56.2235C315.928 56.2235 316.258 52.8353 316.258 48.2488V47.8356C316.258 43.249 315.928 39.8608 313.448 39.8608C310.969 39.8608 310.639 43.249 310.639 47.8356V48.2488C310.639 52.8353 310.969 56.2235 313.448 56.2235ZM326.888 63V33.0843H333.376L339.367 45.8522V33.0843H346.805V63H341.102L334.326 48.4554V63H326.888ZM349.431 52.7526C352.241 55.1905 355.629 56.3475 357.489 56.3475C358.894 56.3475 359.637 55.769 359.637 54.612C359.637 53.4964 358.976 52.9179 357.654 52.1328C355.96 51.1412 353.357 50.0668 351.663 48.4967C350.092 47.0092 349.018 45.0258 349.018 41.8028C349.018 36.5552 352.489 32.7538 358.439 32.7538C361.414 32.7538 364.43 33.6628 366.372 34.9024V42.34C363.811 40.4393 360.877 39.7368 359.307 39.7368C357.902 39.7368 357.117 40.3153 357.117 41.3483C357.117 42.3813 357.695 42.9185 359.141 43.7449C360.877 44.7366 363.397 45.8109 365.092 47.3397C366.703 48.8272 367.695 50.8932 367.695 54.1162C367.695 59.777 363.893 63.3306 358.15 63.3306C354.72 63.3306 351.456 62.2149 349.431 60.6861V52.7526Z" fill="#262623"/>
<path d="M142.84 16.1895H145.749C146.29 16.1895 146.414 16.3699 146.414 16.6856C146.414 17.0464 145.907 17.0464 145.907 17.3622C145.907 17.9711 147.316 19.8429 147.474 20.0797C147.869 19.64 149.053 17.8471 149.053 17.3622C149.053 17.1028 148.557 17.069 148.557 16.6631C148.557 16.415 148.748 16.1895 149.222 16.1895H150.282C150.823 16.1895 151.037 16.3022 151.037 16.6405C151.037 17.0352 150.632 17.1367 150.293 17.6328L148.004 21.0157V23.0679C148.004 23.6768 148.602 23.4062 148.602 23.9926C148.602 24.2745 148.455 24.4436 147.88 24.4436H145.422C144.847 24.4436 144.7 24.2745 144.7 23.9926C144.7 23.4062 145.298 23.6768 145.298 23.0679V21.1735C144.779 20.5195 143.539 18.6251 143.11 17.7907C142.716 17.0239 142.129 17.2156 142.129 16.6743C142.129 16.3699 142.344 16.1895 142.84 16.1895ZM154.736 21.8952H151.917C151.68 22.5943 151.533 22.9777 151.533 23.2258C151.533 23.6768 152.108 23.5077 152.108 23.9813C152.108 24.2857 151.917 24.4436 151.443 24.4436H150.18C149.819 24.4436 149.639 24.3083 149.639 23.9926C149.639 23.5979 150.18 23.519 150.248 23.2709C150.451 22.6169 152.018 18.253 152.526 17.2043C152.898 16.4375 153.112 16.1895 153.991 16.1895C154.995 16.1895 155.051 16.2458 155.446 17.0239C155.627 17.3847 157.837 22.8537 157.949 23.2709C158.073 23.6881 158.479 23.5415 158.479 24.0151C158.479 24.3308 158.231 24.4436 157.803 24.4436H155.48C154.984 24.4436 154.702 24.2857 154.702 24.0151C154.702 23.6655 155.142 23.6317 155.142 23.44C155.142 23.2709 155.029 23.0003 154.736 21.8952ZM152.278 20.7676H154.319L153.337 18.1741L152.278 20.7676ZM159.043 23.0679V17.5652C159.043 16.9562 158.446 17.2269 158.446 16.6405C158.446 16.3586 158.592 16.1895 159.167 16.1895H163.892C165.313 16.1895 166.643 16.6631 166.643 18.1853C166.643 19.2115 165.899 19.9444 165.031 20.3616C165.719 21.0946 166.147 22.0305 166.474 22.9664C166.79 23.8685 167.23 23.6317 167.23 24.0602C167.23 24.297 167.049 24.4436 166.452 24.4436H163.903C163.362 24.4436 163.136 24.3534 163.148 24.0264C163.148 23.6543 163.576 23.6543 163.576 23.3836C163.576 22.8311 162.821 21.4554 162.426 20.9931L161.749 21.0833V23.0679C161.749 23.6768 162.347 23.4062 162.347 23.9926C162.347 24.2745 162.201 24.4436 161.625 24.4436H159.167C158.592 24.4436 158.446 24.2745 158.446 23.9926C158.446 23.4062 159.043 23.6768 159.043 23.0679ZM161.749 18.0162V20.0121C161.828 20.0121 161.907 20.0234 161.986 20.0234C162.933 20.0234 163.824 19.4144 163.824 18.4109C163.824 17.7117 163.351 17.1141 162.618 17.1141C162.054 17.1141 161.749 17.3622 161.749 18.0162ZM167.721 23.0679V17.5652C167.721 16.9562 167.123 17.2269 167.123 16.6405C167.123 16.3586 167.27 16.1895 167.845 16.1895H171.803C174.272 16.1895 176.245 17.4749 176.245 20.3165C176.245 23.1581 174.272 24.4436 171.803 24.4436H167.845C167.27 24.4436 167.123 24.2745 167.123 23.9926C167.123 23.4062 167.721 23.6768 167.721 23.0679ZM170.427 18.0726V22.5605C170.427 23.2483 170.551 23.4287 170.968 23.4287C172.457 23.4287 173.426 21.9403 173.426 20.3165C173.426 18.6928 172.457 17.2043 170.968 17.2043C170.551 17.2043 170.427 17.3847 170.427 18.0726ZM184.605 21.478C184.605 23.6092 182.496 24.624 180.624 24.624C178.809 24.624 176.903 23.6994 176.903 22.6169C176.903 22.2109 177.208 21.8501 177.625 21.8501C178.651 21.8501 178.437 23.519 180.455 23.519C181.402 23.519 181.899 22.9777 181.899 22.4816C181.899 20.948 177.208 22.0305 177.208 18.8957C177.208 17.2269 178.696 16.009 180.861 16.009C182.034 16.009 182.632 16.212 183.477 16.5729C184.075 16.8322 184.086 17.0577 184.086 18.0613C184.086 18.4334 183.951 18.7379 183.522 18.7379C182.677 18.7379 183.071 16.9337 181.233 16.9337C180.343 16.9337 179.914 17.3396 179.914 17.8245C179.914 19.4934 184.605 18.5236 184.605 21.478ZM189.687 21.8952H186.868C186.632 22.5943 186.485 22.9777 186.485 23.2258C186.485 23.6768 187.06 23.5077 187.06 23.9813C187.06 24.2857 186.868 24.4436 186.395 24.4436H185.132C184.771 24.4436 184.591 24.3083 184.591 23.9926C184.591 23.5979 185.132 23.519 185.199 23.2709C185.402 22.6169 186.97 18.253 187.477 17.2043C187.849 16.4375 188.064 16.1895 188.943 16.1895C189.947 16.1895 190.003 16.2458 190.398 17.0239C190.578 17.3847 192.788 22.8537 192.901 23.2709C193.025 23.6881 193.431 23.5415 193.431 24.0151C193.431 24.3308 193.183 24.4436 192.754 24.4436H190.432C189.935 24.4436 189.654 24.2857 189.654 24.0151C189.654 23.6655 190.093 23.6317 190.093 23.44C190.093 23.2709 189.981 23.0003 189.687 21.8952ZM187.229 20.7676H189.27L188.289 18.1741L187.229 20.7676ZM193.995 23.0679V17.5652C193.995 16.9562 193.397 17.2269 193.397 16.6405C193.397 16.3586 193.544 16.1895 194.119 16.1895H196.577C197.152 16.1895 197.299 16.3586 197.299 16.6405C197.299 17.2269 196.701 16.9562 196.701 17.5652V22.7409C196.701 23.3949 196.825 23.4287 197.648 23.4287C199.035 23.4287 198.787 22.1545 199.622 22.1545C199.904 22.1545 200.163 22.3462 200.163 22.6507C200.163 22.9664 199.892 23.8234 199.746 24.1166C199.61 24.3872 199.486 24.4436 199.024 24.4436H194.119C193.544 24.4436 193.397 24.2745 193.397 23.9926C193.397 23.4062 193.995 23.6768 193.995 23.0679ZM200.767 23.0679V17.5652C200.767 16.9562 200.17 17.2269 200.17 16.6405C200.17 16.3586 200.316 16.1895 200.891 16.1895H206.394C207.026 16.1895 207.308 16.3473 207.308 16.866V17.3847C207.308 17.8583 207.026 18.0613 206.766 18.0613C205.887 18.0613 206.642 17.2043 204.5 17.2043C203.632 17.2043 203.474 17.2832 203.474 18.0613V19.4144H204.861C205.751 19.4144 205.582 18.9521 206.056 18.9521C206.372 18.9521 206.53 19.1438 206.53 19.967C206.53 20.7901 206.372 21.0044 206.056 21.0044C205.571 21.0044 205.751 20.5421 204.861 20.5421H203.474V22.2448C203.474 23.316 203.688 23.4287 204.725 23.4287C206.8 23.4287 206.225 22.3801 207.037 22.3801C207.398 22.3801 207.612 22.6169 207.612 22.9777C207.612 23.1807 207.499 23.9813 207.364 24.2181C207.251 24.4098 207.014 24.4436 206.53 24.4436H200.891C200.316 24.4436 200.17 24.2745 200.17 23.9926C200.17 23.4062 200.767 23.6768 200.767 23.0679ZM215.74 22.6845H216.991C218.514 22.6845 218.491 22.0643 218.965 22.0643C219.201 22.0643 219.337 22.1884 219.337 22.459C219.337 22.662 219.089 23.4175 218.987 23.8798C218.886 24.3308 218.773 24.4436 218.13 24.4436H213.293C212.774 24.4436 212.481 24.2857 212.481 23.8685C212.481 22.1207 216.349 20.3842 216.349 18.0049C216.349 17.3396 216.044 16.9788 215.548 16.9788C215.086 16.9788 214.635 17.4186 214.635 17.926C214.635 18.2643 214.883 18.4447 214.883 18.7379C214.883 19.1213 214.42 19.4144 213.823 19.4144C213.112 19.4144 212.605 18.9972 212.605 18.2643C212.605 16.8886 214.127 16.009 216.01 16.009C218.096 16.009 219.168 17.0464 219.168 18.2417C219.168 20.1812 216.946 21.4667 215.74 22.6845ZM224.025 16.009C226.426 16.009 227.813 18.1177 227.813 20.3165C227.813 22.5154 226.426 24.624 224.025 24.624C221.623 24.624 220.236 22.5154 220.236 20.3165C220.236 18.1177 221.623 16.009 224.025 16.009ZM224.025 23.6543C224.498 23.6543 224.994 23.113 224.994 20.3165C224.994 17.52 224.498 16.9788 224.025 16.9788C223.551 16.9788 223.055 17.52 223.055 20.3165C223.055 23.113 223.551 23.6543 224.025 23.6543ZM231.971 22.6845H233.223C234.745 22.6845 234.723 22.0643 235.196 22.0643C235.433 22.0643 235.568 22.1884 235.568 22.459C235.568 22.662 235.32 23.4175 235.219 23.8798C235.117 24.3308 235.004 24.4436 234.362 24.4436H229.524C229.006 24.4436 228.712 24.2857 228.712 23.8685C228.712 22.1207 232.58 20.3842 232.58 18.0049C232.58 17.3396 232.276 16.9788 231.779 16.9788C231.317 16.9788 230.866 17.4186 230.866 17.926C230.866 18.2643 231.114 18.4447 231.114 18.7379C231.114 19.1213 230.652 19.4144 230.054 19.4144C229.344 19.4144 228.836 18.9972 228.836 18.2643C228.836 16.8886 230.359 16.009 232.242 16.009C234.328 16.009 235.399 17.0464 235.399 18.2417C235.399 20.1812 233.178 21.4667 231.971 22.6845ZM238.88 17.8696L238.745 19.4144C239.264 19.2227 239.805 19.1551 240.369 19.1551C242.004 19.1551 243.571 20.0008 243.571 21.7937C243.571 23.4964 242.241 24.624 240.008 24.624C238.114 24.624 236.941 23.8798 236.941 22.9326C236.941 22.3124 237.381 21.9516 237.978 21.9516C238.655 21.9516 239.061 22.2786 239.061 22.7747V23.0792C239.061 23.4851 239.275 23.6543 239.67 23.6543C240.279 23.6543 240.752 23.0905 240.752 21.9065C240.752 20.6999 240.234 20.1248 239.354 20.1248C238.598 20.1248 238.35 20.7789 237.944 20.7789C237.629 20.7789 237.505 20.5421 237.505 20.2489C237.505 19.7302 237.753 17.7568 237.877 16.009C238.869 16.0767 239.625 16.1895 240.865 16.1895C241.26 16.1895 241.666 16.1444 242.015 16.0993C242.376 16.0541 242.692 16.009 242.906 16.009C243.165 16.009 243.278 16.1782 243.278 16.4263C243.278 16.9111 242.602 17.9485 241.091 17.9485C240.109 17.9485 239.501 17.8922 238.88 17.8696Z" fill="#222220"/>
</svg>
