<svg width="387" height="148" viewBox="0 0 387 148" fill="none" xmlns="http://www.w3.org/2000/svg">
<g style="mix-blend-mode:hard-light" clip-path="url(#clip0_4_5059)">
<path d="M65.558 59.6771C66.3313 60.0458 67.2778 60.138 68.2242 60.138C68.6397 60.138 69.0668 60.1149 69.4707 60.1034C69.8401 60.0919 70.1979 60.0688 70.5441 60.0688C71.4559 60.0688 72.2292 59.8268 72.7486 59.2392C73.118 58.8244 73.5219 58.0523 73.3604 56.7848C72.991 53.6967 72.5986 50.5855 72.2062 47.4628C71.5829 42.6001 70.9481 37.5646 70.4287 32.6328L70.3941 32.3217C70.2325 30.9851 70.1171 30.2706 69.4823 29.8904L68.6974 29.6254L68.2357 29.9249C67.6125 30.3282 67.5432 30.8813 67.1854 34.1423C67.1393 34.6032 67.0816 35.0757 67.0354 35.5251C66.4583 40.6988 65.8004 46.08 65.1771 50.6777L65.1541 50.8966L66.2967 51.0464L65.1541 50.9312L64.8424 53.3049C64.7963 53.881 64.7039 54.4572 64.6231 55.0218C64.3577 56.7157 64.0922 58.4787 65.3041 59.5157L65.558 59.6771Z" fill="#101010"/>
<path d="M114.311 39.8923L114.346 40.1112L114.461 40.3186C115.015 41.2635 115.996 41.4594 116.862 41.4594C117.231 41.4594 117.577 41.4248 117.866 41.3902C118.108 41.3672 118.328 41.3441 118.582 41.3441C120.105 41.275 121.432 40.5951 122.437 39.3737C124.849 36.4239 124.964 30.7776 124.341 26.8829C124.041 24.4285 123.037 22.5273 121.444 21.3634C119.897 20.2342 117.831 19.8539 115.627 20.2803L115.292 20.3955C114.173 20.8795 114.196 22.0202 114.207 23.0343C114.207 23.3108 114.219 23.6219 114.207 24.0137V31.3077C114.23 32.7942 114.219 34.1769 114.207 35.3868C114.184 37.3111 114.161 38.8206 114.311 39.8923Z" fill="#101010"/>
<path d="M195.347 36.7119C195.197 34.7415 194.977 32.8057 194.712 30.9274C194.631 30.3743 194.55 29.8212 194.458 29.2797C194.354 28.6229 194.239 27.9661 194.112 27.3323C193.996 26.7101 193.869 26.0993 193.742 25.5002C193.65 25.1084 193.569 24.7166 193.477 24.3248C193.211 23.161 192.9 22.0433 192.554 20.9486C192.392 20.384 192.219 19.8194 192.011 19.2778C191.826 18.7362 191.63 18.2062 191.422 17.6876C191.319 17.4341 191.226 17.1806 191.111 16.9271C191.076 16.8349 191.042 16.7543 190.995 16.6621C190.834 16.2588 190.649 15.867 190.464 15.4752C190.176 14.8645 189.864 14.2884 189.564 13.7353C189.449 13.5509 189.345 13.3781 189.241 13.2052C188.964 12.7328 188.664 12.2834 188.364 11.8571C187.96 11.2003 187.533 10.578 187.071 9.97883C186.759 9.57552 186.436 9.18375 186.102 8.80349C185.928 8.61912 185.755 8.43476 185.582 8.25039C185.409 8.06603 185.224 7.89318 185.04 7.70882C180.077 2.90377 172.701 0.403304 164.414 0.910311C162.96 0.933357 160.894 0.910311 158.666 0.910311C154.927 0.887265 150.679 0.852697 148.106 1.00249L147.852 1.02554L147.644 1.11772C147.078 1.38275 146.778 1.88976 146.755 2.65027V34.972C146.755 34.972 146.732 34.9259 146.732 34.9028C146.617 34.5341 146.501 34.1769 146.386 33.8658C146.27 33.5086 146.155 33.1398 146.051 32.8402C145.936 32.4715 145.82 32.1143 145.705 31.8147C145.59 31.446 145.474 31.0888 145.359 30.7776C145.255 30.4204 145.128 30.0632 145.024 29.7521C144.909 29.3834 144.793 29.0262 144.678 28.715C144.562 28.3578 144.447 28.0006 144.343 27.6895C144.228 27.3323 144.112 26.9636 143.997 26.664C143.881 26.2952 143.766 25.938 143.662 25.6269C143.547 25.2697 143.431 24.9125 143.316 24.6014C143.2 24.2326 143.085 23.8754 142.981 23.5758C142.866 23.2071 142.75 22.8499 142.635 22.5388C142.519 22.1816 142.404 21.8244 142.289 21.5132C142.185 21.1445 142.058 20.7873 141.954 20.4877C141.838 20.119 141.723 19.7618 141.608 19.4506C141.527 19.1626 141.423 18.8745 141.331 18.6095C141.331 18.5519 141.296 18.4827 141.273 18.4251C141.25 18.3099 141.204 18.2062 141.169 18.0909C141.134 17.9642 141.088 17.8259 141.054 17.7222C140.961 17.4341 140.869 17.1576 140.788 16.8926C140.719 16.6391 140.615 16.3856 140.523 16.132C140.361 15.6711 140.188 15.2217 139.992 14.7839C136.137 5.46185 127.665 0.449395 116.827 1.02554H109.81C107.051 1.02554 104.258 1.03706 101.788 1.02554C101.107 1.06011 100.53 1.03706 99.999 1.02554C98.9718 0.990971 98.083 0.967925 97.1135 1.27904L96.3864 1.52102L96.3287 2.28154C96.3056 2.54656 96.2825 2.98443 96.271 3.59514C96.2594 3.77951 96.2594 3.9754 96.2594 4.19433C96.2479 4.40175 96.2363 4.62068 96.2363 4.86266C96.1671 8.83806 96.144 16.593 96.144 25.9841C96.1325 25.9265 96.1209 25.8804 96.1094 25.8343C96.0401 25.5923 95.867 25.189 95.4399 24.924C95.4169 24.8434 95.4053 24.7742 95.3938 24.7166C95.3245 24.4631 95.1514 24.0713 94.7243 23.8063C94.7013 23.7141 94.6782 23.645 94.6666 23.5989C94.5974 23.3454 94.4358 22.9421 93.9972 22.6886C93.9857 22.5964 93.9626 22.5273 93.951 22.4696C93.8818 22.2277 93.7087 21.8244 93.2816 21.5593C93.2585 21.4671 93.247 21.398 93.2239 21.3519C93.1662 21.0984 92.9931 20.6951 92.5545 20.4416C92.5429 20.3494 92.5198 20.2803 92.5083 20.2227C92.4391 19.9807 92.2775 19.5889 91.8389 19.3124C91.8158 19.2317 91.8042 19.1626 91.7927 19.105C91.7234 18.863 91.5503 18.4597 91.1233 18.1946C91.1002 18.1025 91.0887 18.0333 91.0656 17.9757C91.0079 17.7337 90.8347 17.3304 90.3961 17.0654C90.3961 16.9847 90.3615 16.9156 90.35 16.858C90.2807 16.616 90.1076 16.2127 89.6805 15.9477C89.6574 15.867 89.6459 15.7979 89.6344 15.7403C89.5651 15.4868 89.392 15.095 88.9649 14.8184C88.9419 14.7378 88.9303 14.6686 88.9072 14.6226C88.8495 14.369 88.6764 13.9773 88.2378 13.7007C88.2378 13.6201 88.2032 13.5509 88.1916 13.4933C88.1224 13.2398 87.9493 12.848 87.5222 12.583C87.4991 12.4908 87.4876 12.4332 87.476 12.3756C87.4068 12.1221 87.2337 11.7188 86.8066 11.4538C86.7835 11.3731 86.772 11.304 86.7489 11.2579C86.6912 11.0044 86.5181 10.6011 86.0795 10.336C86.0679 10.2554 86.0448 10.1862 86.0333 10.1286C85.964 9.88664 85.8025 9.48334 85.3639 9.21832C85.3408 9.12613 85.3292 9.06852 85.3177 9.0109C85.2484 8.7574 85.0753 8.3541 84.6367 8.07755C84.6252 8.00841 84.6021 7.93927 84.5906 7.89318C84.5329 7.63968 84.3597 7.23638 83.9211 6.97135C83.9096 6.87917 83.8865 6.82155 83.875 6.77546C83.8057 6.51044 83.6326 6.10713 83.2055 5.84211C83.1824 5.76145 83.1709 5.69231 83.1594 5.64622C83.0901 5.39272 82.917 5.00094 82.4784 4.72439C82.4668 4.64373 82.4438 4.57459 82.4322 4.51698C82.363 4.26347 82.1898 3.86017 81.7628 3.59514C81.7397 3.51448 81.7282 3.44535 81.7166 3.39926C81.6474 3.14575 81.4742 2.74245 81.0357 2.4659C81.0241 2.41981 81.0241 2.38524 81.0126 2.35067L80.9779 2.20087C80.8856 1.92433 80.7356 1.70539 80.5393 1.52102C80.447 1.42884 80.3431 1.34818 80.2162 1.29057C80.1008 1.23295 79.9623 1.17534 79.8238 1.14077C79.4082 1.02554 78.8773 1.02554 77.9193 1.02554H77.5731C75.7379 1.01402 72.587 1.02554 69.3206 1.02554C65.8119 1.03706 62.1646 1.03706 59.8216 1.02554H59.6947C59.5908 1.04859 59.4985 1.04859 59.4061 1.04859C58.9906 1.03706 58.2288 1.03706 57.6518 1.82062L57.4902 2.14326C57.3517 2.54656 57.2362 3.24946 56.9939 4.80505C56.9246 5.23139 56.8438 5.69231 56.763 6.21084C56.7284 6.40673 56.6938 6.61414 56.6591 6.83308L56.5322 6.81003L56.6014 6.25693L55.7358 5.69231H55.6319L55.7012 5.15073L54.8471 4.57459H54.7432L54.8009 4.02149L53.9468 3.44535H53.8429L53.9006 2.89225L53.0465 2.32763H52.9427L53.0004 1.77453L52.1463 1.19838L51.8693 1.17534C51.4884 1.14077 51.0729 1.1062 50.6343 1.08315C50.3457 1.06011 50.0341 1.04859 49.7225 1.03706C48.2913 0.979448 46.6639 0.990971 45.0018 1.00249C44.4363 1.00249 43.8707 1.00249 43.3052 1.01402C42.7281 1.02554 42.1741 1.02554 41.62 1.03706C40.4312 1.04859 39.3348 1.04859 38.3768 1.02554H38.2036C37.742 1.09468 37.2341 1.06011 36.7032 1.02554C35.422 0.933357 33.6677 0.818128 32.5481 2.4659L32.4096 2.74245C32.2596 3.20337 32.1095 3.65276 31.971 4.10215C31.694 4.96637 31.4285 5.81906 31.1515 6.68328C31.1285 6.76394 31.1054 6.8446 31.0823 6.92526C30.6206 8.41171 30.2051 9.79446 29.8242 11.0965C29.5934 10.797 29.3164 10.5665 28.9817 10.3937C28.7277 9.89817 28.3584 9.51791 27.8852 9.26441C27.6313 8.78045 27.2504 8.40019 26.7887 8.14669C26.5232 7.6512 26.1539 7.27095 25.6922 7.01744C25.4268 6.53348 25.0574 6.15323 24.5842 5.89972C24.3303 5.41576 23.9609 5.03551 23.4877 4.782C23.2338 4.28652 22.8529 3.90626 22.3912 3.65276C22.1258 3.15727 21.7449 2.77702 21.2717 2.52352C21.0524 2.12021 20.7754 1.83214 20.4753 1.62473C20.4176 1.57864 20.3483 1.53255 20.2906 1.49798C20.0598 1.3597 19.8174 1.256 19.575 1.18686C19.4365 1.15229 19.2865 1.11772 19.148 1.09468C19.1249 1.09468 19.1018 1.09468 19.0787 1.08315C18.9979 1.07163 18.9171 1.07163 18.8363 1.06011C18.4901 1.02554 18.1554 1.02554 17.8668 1.02554H3.00084C1.54656 1.03706 0.80788 1.03706 0.288495 1.69387C-5.29559e-05 2.07412 -0.0808463 2.55808 0.0691985 3.18032C0.992551 6.10713 5.75936 20.7412 9.97215 33.6353C12.2113 40.503 14.335 47.0134 15.7316 51.323L15.8701 51.7263C16.1817 52.6711 16.2856 52.9938 16.274 53.9617C16.2856 55.7593 16.274 60.403 16.274 65.692C16.2625 73.9309 16.2509 83.2644 16.3087 86.7098C16.3087 86.9056 16.3548 87.09 16.401 87.2513C16.4241 87.355 16.4587 87.4472 16.4933 87.5394C16.5972 87.8044 16.7472 88.0003 16.9204 88.1501C17.0473 88.2769 17.1974 88.3806 17.359 88.4497C17.3821 88.4612 17.4167 88.4728 17.4398 88.4843C17.6013 88.5649 17.7745 88.611 17.9245 88.6456C18.2477 89.0028 18.6747 89.1641 19.0441 89.2333C19.3673 89.5905 19.7943 89.7403 20.1637 89.8209C20.4753 90.1666 20.9023 90.3279 21.2717 90.4086C21.5948 90.7543 22.0104 90.9156 22.3797 90.9847C22.7029 91.342 23.1299 91.4918 23.4993 91.5724C23.8109 91.9181 24.2379 92.0794 24.6073 92.1601C24.9305 92.5058 25.346 92.6671 25.7153 92.7362C26.0385 93.0934 26.4655 93.2548 26.8349 93.3239C27.1465 93.6696 27.5736 93.8309 27.9429 93.9116C28.2545 94.2572 28.6816 94.4186 29.0509 94.4992C29.3741 94.8449 29.8011 95.0062 30.1705 95.0754C30.4821 95.4326 30.9092 95.5824 31.2785 95.663C31.6017 96.0087 32.0172 96.1701 32.3981 96.2507C32.7097 96.5964 33.1367 96.7577 33.5061 96.8269C33.8177 97.1841 34.2448 97.3454 34.6257 97.4145C34.9373 97.7717 35.3643 97.9215 35.7337 98.0022C36.0453 98.3479 36.4724 98.5092 36.8417 98.5783C37.1649 98.9355 37.5804 99.0969 37.9613 99.166C38.2729 99.5232 38.6999 99.6845 39.0693 99.7537C39.3809 100.099 39.808 100.261 40.1889 100.341C40.5005 100.687 40.9275 100.848 41.2969 100.917C41.6085 101.275 42.0356 101.424 42.4164 101.505C42.7281 101.851 43.1436 102.012 43.5245 102.081C43.8361 102.438 44.2631 102.6 44.6325 102.669C44.9441 103.026 45.3712 103.187 45.752 103.257C46.0637 103.602 46.4792 103.764 46.8601 103.844C47.1717 104.19 47.5988 104.351 47.9796 104.42C48.2797 104.778 48.7068 104.927 49.0877 105.008C49.3993 105.354 49.8263 105.515 50.1957 105.584C50.5073 105.941 50.9344 106.103 51.3152 106.172C51.6269 106.529 52.0424 106.69 52.4233 106.76C52.7349 107.105 53.1619 107.267 53.5428 107.336C53.8429 107.693 54.27 107.854 54.6509 107.923C54.9625 108.281 55.378 108.442 55.7589 108.511C56.0705 108.868 56.4976 109.018 56.8784 109.087C57.1785 109.444 57.6056 109.606 57.9865 109.675C58.2981 110.032 58.7136 110.193 59.106 110.263C59.4061 110.62 59.8332 110.77 60.2141 110.85C60.5141 111.196 60.9412 111.357 61.3221 111.426C61.6337 111.784 62.0492 111.945 62.4416 112.014C62.7417 112.371 63.1688 112.521 63.5497 112.59C63.8498 112.947 64.2768 113.109 64.6577 113.178C64.9693 113.535 65.3848 113.696 65.7773 113.766C66.0773 114.123 66.5044 114.273 66.8853 114.342C67.1854 114.699 67.6124 114.86 68.0048 114.929C68.3049 115.287 68.7204 115.448 69.1129 115.517C69.4129 115.874 69.84 116.024 70.2209 116.105C70.521 116.45 70.948 116.612 71.3404 116.681C71.6405 117.038 72.056 117.199 72.4485 117.268C72.7486 117.626 73.1756 117.775 73.5565 117.845C73.8566 118.202 74.2836 118.363 74.6761 118.432C74.9646 118.789 75.3917 118.939 75.7725 119.02C76.0726 119.377 76.4997 119.538 76.8921 119.608C77.1807 119.965 77.6077 120.115 78.0001 120.184C78.3002 120.541 78.7157 120.702 79.1197 120.771C79.4082 121.129 79.8353 121.29 80.2277 121.359C80.5163 121.716 80.9433 121.866 81.3357 121.935C81.6358 122.292 82.0513 122.454 82.4553 122.523C82.7439 122.88 83.1709 123.041 83.5633 123.111C83.8519 123.468 84.2789 123.618 84.6713 123.687C84.9714 124.044 85.3869 124.205 85.7909 124.274C86.0795 124.632 86.5065 124.793 86.8989 124.862C87.1875 125.219 87.6145 125.369 88.0185 125.438C88.3071 125.795 88.7226 125.957 89.1265 126.026C89.4151 126.383 89.8421 126.544 90.2346 126.614C90.5231 126.971 90.9501 127.121 91.3541 127.19C91.6311 127.547 92.0582 127.708 92.4506 127.777C92.7391 128.135 93.1662 128.296 93.5702 128.365C93.8587 128.722 94.2742 128.872 94.6782 128.941C94.9667 129.31 95.3938 129.46 95.7977 129.529C96.0748 129.886 96.5018 130.047 96.9058 130.116C97.1943 130.474 97.6098 130.623 98.0253 130.693C98.3023 131.061 98.7294 131.211 99.1334 131.28C99.4104 131.638 99.8374 131.799 100.241 131.856C100.53 132.225 100.945 132.375 101.361 132.444C101.638 132.813 102.065 132.963 102.469 133.032C102.746 133.389 103.173 133.539 103.577 133.608C103.854 133.977 104.27 134.126 104.697 134.196C104.962 134.564 105.389 134.714 105.805 134.783C106.082 135.14 106.497 135.302 106.913 135.359C107.19 135.728 107.605 135.878 108.032 135.947C108.298 136.316 108.725 136.466 109.152 136.535C109.417 136.892 109.844 137.042 110.26 137.111C110.525 137.48 110.952 137.629 111.368 137.699C111.645 138.056 112.06 138.217 112.476 138.286C112.753 138.643 113.168 138.793 113.595 138.862C113.861 139.243 114.299 139.392 114.703 139.45C114.98 139.83 115.407 139.98 115.823 140.038C116.088 140.418 116.527 140.568 116.931 140.625C117.208 141.006 117.635 141.155 118.051 141.213C118.328 141.582 118.755 141.732 119.159 141.789C119.436 142.169 119.874 142.319 120.278 142.377C120.544 142.746 120.982 142.895 121.386 142.953C121.663 143.333 122.09 143.483 122.494 143.541C122.771 143.909 123.198 144.059 123.602 144.128C123.879 144.497 124.306 144.647 124.722 144.704C124.987 145.085 125.426 145.235 125.841 145.292C126.107 145.661 126.545 145.811 126.949 145.868C127.215 146.249 127.653 146.398 128.057 146.456C128.334 146.836 128.773 146.986 129.188 147.044C129.627 147.654 130.493 147.666 130.943 147.666H132.651L132.686 147.689H180.585L182.385 147.666C182.731 147.677 183.078 147.689 183.412 147.689C187.614 147.689 190.753 146.053 192.519 142.941C194.354 140.003 195.3 134.391 194.931 128.734V127.812C194.931 127.604 194.943 127.397 194.931 127.201V126.936L194.943 125.208C194.954 125 194.954 124.804 194.954 124.62V123.468C194.966 123.272 194.966 123.064 194.954 122.903V122.615L194.966 121.739C194.966 121.543 194.977 121.348 194.966 121.175V120.898L194.977 119.147C194.989 118.951 194.989 118.766 194.989 118.594V117.43C194.989 117.234 194.989 117.038 194.989 116.865V116.566V114.826C195 114.641 195 114.457 195 114.284V113.593C195.012 113.189 195.012 112.786 195.012 112.394C195.023 112.106 195.023 111.818 195.023 111.553V109.859C195.035 109.571 195.035 109.283 195.035 109.007V108.165C195.047 107.877 195.047 107.589 195.047 107.313V106.472C195.047 106.183 195.047 105.895 195.047 105.63V103.936C195.058 103.648 195.058 103.36 195.058 103.084V102.243C195.07 101.955 195.07 101.666 195.07 101.39V99.6961C195.081 99.408 195.081 99.1199 195.081 98.8549V98.0022L195.104 94.626V93.7733C195.104 93.4852 195.104 93.1971 195.104 92.9206V92.0794L195.335 52.7057C195.381 52.0489 195.427 51.3806 195.462 50.7122C195.462 50.6661 195.462 50.6201 195.462 50.574C195.485 49.9863 195.52 49.3871 195.543 48.7994C195.681 45.4578 195.647 42.0816 195.439 38.7745C195.404 38.0832 195.358 37.3918 195.3 36.7119H195.347ZM3.01238 3.33012H17.9361C18.0746 3.33012 18.19 3.33012 18.3054 3.34164C18.4439 3.34164 18.5593 3.34164 18.6632 3.35316C18.9056 3.37621 19.0325 3.41078 19.1364 3.47992C19.148 3.47992 19.171 3.50296 19.1826 3.51448C19.1941 3.52601 19.2057 3.52601 19.1941 3.53753C19.2403 3.58362 19.2749 3.62971 19.298 3.69885C19.3095 3.7219 19.3095 3.74494 19.3211 3.76799L19.4827 4.34413C21.5948 11.0505 22.9106 16.1551 23.7994 19.5774C24.5034 22.2622 24.9189 23.887 25.3344 24.8434C25.7499 25.7998 26.1654 26.0763 26.858 26.0763C28.2199 26.0763 28.5315 24.8779 29.8358 19.8655C30.1936 18.4942 30.6091 16.8465 31.14 14.9452C31.29 14.3575 31.4632 13.7468 31.6478 13.1015C31.9364 12.0875 32.248 11.0159 32.5827 9.87512C33.1483 7.97384 33.7946 5.8882 34.5333 3.64124C34.8565 3.2725 35.3182 3.23793 36.5416 3.3186C37.1072 3.36469 37.742 3.41078 38.3883 3.33012C39.3578 3.35316 40.4659 3.35316 41.6431 3.34164C42.1971 3.34164 42.7512 3.34164 43.3283 3.33012C43.9169 3.33012 44.5171 3.31859 45.1057 3.30707C46.987 3.29555 48.8453 3.29555 50.3573 3.36469C49.3416 7.38618 45.9483 17.4226 42.6473 27.171C38.8038 38.5556 35.1681 49.2949 34.4641 52.7633L34.441 52.9823C34.4294 57.7182 34.4294 65.9916 34.4294 73.2625C34.4294 78.6898 34.441 83.541 34.4294 85.9838C34.4294 86.1797 34.4294 86.318 34.4179 86.4217C34.037 86.4447 33.4368 86.4447 32.7097 86.4447H31.8094C30.1012 86.4562 27.7813 86.4447 25.496 86.4447H19.6327C19.3211 86.4447 18.9979 86.4332 18.744 86.4217H18.6863C18.6863 86.4217 18.6286 86.4217 18.6055 86.4102C18.5478 82.8726 18.5593 73.3662 18.5709 65.692C18.5709 60.3915 18.5824 55.7362 18.5709 53.9732C18.5824 52.6366 18.3977 52.0604 18.0515 51.0118L17.9245 50.6085C16.5164 46.299 14.3927 39.7885 12.1536 32.9209C8.25241 20.9486 3.86648 7.48988 2.53917 3.34164C2.68921 3.33012 2.8508 3.33012 3.01238 3.33012ZM58.4135 10.4743C58.5405 9.69075 58.6559 8.95329 58.7598 8.26192C58.9675 7.05201 59.1291 6.01495 59.2676 5.17378C59.383 4.44784 59.4869 3.79103 59.5677 3.35316C59.66 3.35316 59.7639 3.34164 59.8563 3.33012C62.2108 3.34164 65.835 3.34164 69.3206 3.33012C72.587 3.33012 75.7379 3.3186 77.5615 3.33012H77.9193C78.2541 3.33012 78.5888 3.33012 78.8427 3.34164C78.8427 3.39926 78.8658 3.46839 78.8773 3.53753C79.6506 7.93927 83.0093 28.3694 86.2641 48.1772C88.8611 63.9866 91.4003 79.3812 92.4852 85.8686C92.5198 86.076 92.5545 86.2604 92.5776 86.4332H90.7886C86.8759 86.4447 79.5929 86.4563 77.146 86.4217C77.0075 86.4217 76.9614 86.3986 76.9614 86.4102C76.7767 86.2258 76.6497 85.2464 76.5689 84.7048C76.4189 83.9443 76.3035 82.7804 76.1765 81.5475C75.9226 78.9894 75.6687 76.3507 74.8954 74.8988L74.6184 74.5301C73.8681 73.7926 72.9563 73.758 72.2869 73.7235H70.7403C68.9513 73.7004 66.7352 73.6889 65.3733 73.7235C64.6923 73.7811 63.4227 73.8963 62.7417 75.1753L62.684 75.3251C62.0723 77.019 61.8184 79.4158 61.576 81.7434C61.4375 83.0916 61.3105 84.3591 61.1143 85.3155L61.0912 85.4422C61.0335 85.7534 60.9412 86.2719 60.8835 86.3525C60.7681 86.4102 60.341 86.4217 60.2256 86.4332C58.7944 86.3756 56.7284 86.4102 54.547 86.4332C51.5576 86.4793 48.2451 86.5139 45.9598 86.3756C46.6523 80.8331 49.9418 61.2903 53.1158 42.3466C55.1356 30.3398 57.0631 18.9321 58.275 11.327C58.3212 11.0389 58.3674 10.7509 58.4135 10.4628V10.4743ZM98.4755 11.0965C98.4755 10.3936 98.487 9.72532 98.487 9.09156C98.4986 8.23887 98.4986 7.44379 98.5101 6.71785C98.5101 6.42978 98.5216 6.1417 98.5216 5.87668C98.5447 4.80505 98.5563 3.94083 98.5793 3.33012C98.9718 3.29555 99.4104 3.30707 99.9297 3.33012C100.507 3.34164 101.142 3.36469 101.834 3.33012C104.246 3.34164 107.051 3.34164 109.81 3.33012H116.885C122.69 3.019 133.124 4.21738 137.868 15.6827C137.949 15.8785 138.03 16.0744 138.11 16.2703C138.214 16.5008 138.307 16.7428 138.387 16.9847C138.468 17.1922 138.549 17.4111 138.607 17.63C138.664 17.7568 138.711 17.8835 138.734 18.0218C138.872 18.3905 138.988 18.7708 139.08 19.151C139.08 19.1626 139.103 19.1741 139.08 19.1971C141.804 28.8533 140.303 41.6092 135.306 47.9007C135.098 48.2118 134.844 48.5114 134.579 48.811C133.644 49.9287 132.362 51.4497 133.101 53.593C133.678 55.5058 134.832 59.3083 136.171 63.7101L138.907 72.7094C139.415 74.4494 140.026 76.4313 140.638 78.4133C141.538 81.317 142.462 84.3015 143.039 86.4332H143.004C142.542 86.4217 141.977 86.3986 141.365 86.4447C139.772 86.4332 137.649 86.4447 135.513 86.4447C131.993 86.4447 128.346 86.4563 126.949 86.4217C126.776 86.4217 126.695 86.3756 126.695 86.3986C126.684 86.3871 126.615 86.2834 126.522 85.9492C125.507 82.3195 123.914 76.4429 122.425 70.9925C121.144 66.2912 119.955 61.8894 119.297 59.5388C118.985 58.4211 118.351 57.5684 117.566 57.2227L117.485 57.1881C116.792 56.877 116.042 56.9346 115.431 57.3494C114.623 57.9025 114.161 59.0087 114.207 60.1841C114.196 62.4886 114.196 66.5908 114.207 70.9349C114.219 76.8462 114.219 83.5294 114.172 86.3641C114.172 86.3986 114.161 86.4332 114.161 86.4563C113.999 86.4678 113.745 86.4447 113.561 86.4332C113.353 86.4217 113.134 86.4102 112.903 86.4102C112.718 86.4102 112.522 86.4217 112.314 86.4447H100.172C99.5373 86.4217 99.041 86.4217 98.6486 86.4332H98.487C98.5447 79.6117 98.5101 65.957 98.4755 51.5304C98.4639 44.4438 98.4524 37.0346 98.4408 30.19C98.4408 22.8268 98.4408 16.109 98.4639 11.0965H98.4755ZM149.064 3.26098C151.603 3.1688 155.331 3.19184 158.655 3.21489C160.906 3.21489 162.983 3.23793 164.507 3.21489C174.086 2.65027 182.27 6.31455 186.436 13.1246C187.256 14.2769 188.006 15.625 188.675 17.1461C188.976 17.8259 189.276 18.5403 189.53 19.2778C189.726 19.7733 189.899 20.2803 190.06 20.7988C190.222 21.2482 190.361 21.7091 190.488 22.1816C190.591 22.5273 190.695 22.8845 190.788 23.2417C190.88 23.5643 190.961 23.887 191.042 24.2211C191.203 24.8779 191.365 25.5463 191.503 26.2376C191.584 26.5833 191.653 26.929 191.722 27.2862C191.769 27.5282 191.815 27.7702 191.861 28.0237C191.976 28.6113 192.08 29.2105 192.173 29.8097C192.23 30.1785 192.288 30.5472 192.346 30.9044C192.427 31.4575 192.507 32.0106 192.577 32.5752C194.504 47.82 192.715 66.3834 187.06 75.4288C182.524 83.4373 174.41 87.1361 162.856 86.4447H156.901C153.507 86.4447 150.241 86.4447 149.064 86.4332V3.26098Z" fill="#101010"/>
<path d="M166.457 68.3999C166.688 68.446 166.919 68.4575 167.173 68.4575C167.335 68.4575 167.508 68.4575 167.681 68.4344L167.842 68.4114C177.688 67.1554 177.307 51.4267 177.064 41.0215C177.041 39.9614 177.018 38.9474 177.007 37.991C176.672 27.7932 173.348 21.6976 167.865 21.2482H167.692C167.011 21.1906 166.157 21.1215 165.499 21.6976C165.084 22.0548 164.841 22.5964 164.784 23.3684C164.772 29.0838 164.784 38.7284 164.784 47.4743V64.194C164.795 64.6204 164.784 65.0006 164.784 65.3348C164.761 66.4986 164.738 68.0888 166.457 68.3999Z" fill="#101010"/>
<path d="M276.579 59.6771C277.352 60.0458 278.298 60.138 279.245 60.138C279.672 60.138 280.087 60.1149 280.491 60.1034C280.861 60.0919 281.218 60.0688 281.565 60.0688C282.477 60.0688 283.25 59.8268 283.769 59.2392C284.139 58.8244 284.543 58.0523 284.381 56.7848C284.012 53.6851 283.619 50.5624 283.215 47.4282C282.604 42.5771 281.969 37.5531 281.461 32.6443L281.415 32.3217C281.253 30.9851 281.138 30.2706 280.503 29.8904L279.718 29.6254L279.256 29.9249C278.645 30.3282 278.564 30.8813 278.206 34.1423C278.16 34.6032 278.102 35.0757 278.056 35.5251C277.479 40.6988 276.821 46.08 276.209 50.6777L276.175 50.8966L277.317 51.0464L276.175 50.9312L275.863 53.3049C275.817 53.881 275.725 54.4572 275.644 55.0218C275.378 56.7157 275.113 58.4787 276.325 59.5157L276.579 59.6771Z" fill="#101010"/>
<path d="M386.977 69.2526C386.965 68.6188 386.931 68.0081 386.723 67.478C386.273 66.0377 384.299 66.0953 382.556 66.1529C382.418 66.1529 382.268 66.1529 382.141 66.1529C381.829 66.1644 381.541 66.1644 381.264 66.1529C379.359 66.1183 377.236 66.1299 375.193 66.1529C372.307 66.1875 369.583 66.2221 367.898 66.0723C367.887 66.0031 367.864 65.9225 367.852 65.7957C367.852 65.7611 367.84 65.7266 367.84 65.692C367.91 65.6229 367.979 65.5422 368.037 65.4615C368.371 65.3694 368.706 65.2311 368.995 64.9545C369.075 64.8739 369.168 64.7702 369.237 64.6665C369.572 64.5858 369.918 64.436 370.195 64.1595C370.287 64.0788 370.368 63.9751 370.437 63.8599C370.784 63.7792 371.118 63.6294 371.395 63.3644C371.488 63.2722 371.58 63.18 371.649 63.0648C371.984 62.9841 372.33 62.8343 372.607 62.5693C372.7 62.4771 372.78 62.3849 372.85 62.2697C373.196 62.189 373.531 62.0392 373.819 61.7627C373.912 61.682 373.981 61.5783 374.062 61.4746C374.396 61.394 374.743 61.2442 375.02 60.9676C375.112 60.887 375.193 60.7832 375.262 60.6795C375.597 60.5874 375.943 60.4491 376.22 60.1725C376.312 60.0803 376.393 59.9882 376.474 59.8845C376.809 59.7923 377.143 59.6425 377.432 59.3775C377.513 59.2853 377.605 59.1931 377.674 59.0779C378.009 58.9972 378.355 58.8474 378.632 58.5824C378.724 58.4902 378.805 58.398 378.875 58.2828C379.221 58.2021 379.556 58.0523 379.844 57.7758C379.936 57.6951 380.017 57.5914 380.086 57.4877C380.421 57.407 380.767 57.2572 381.056 56.9807C381.137 56.8885 381.218 56.7963 381.287 56.6926C381.633 56.612 381.968 56.4622 382.245 56.1856C382.337 56.1049 382.418 56.0012 382.499 55.8975C382.833 55.8054 383.168 55.6556 383.457 55.3905C383.549 55.2983 383.63 55.2062 383.699 55.1025C384.068 55.0218 384.38 54.8605 384.646 54.607C385.419 53.8926 385.419 52.7748 385.419 50.7468V50.3089C385.419 48.6496 385.419 46.8636 385.43 45.0545C385.43 42.2199 385.43 39.3046 385.407 36.6428C385.338 33.8082 383.999 33.6007 381.956 33.5892H379.417C378.436 33.5662 377.374 33.5662 376.278 33.5777C375.793 33.5777 375.308 33.5777 374.823 33.5892C374.523 33.5892 374.223 33.6007 373.912 33.6007H372.988C373.023 33.5431 373.057 33.497 373.081 33.4394C373.554 33.3012 374.015 33.0131 374.304 32.4369C374.766 32.2987 375.227 32.0106 375.516 31.446C375.978 31.2962 376.439 31.0196 376.728 30.4435C377.201 30.3052 377.651 30.0171 377.94 29.441C378.413 29.3027 378.863 29.0262 379.152 28.45C379.59 28.3117 380.063 28.0352 380.363 27.459C380.79 27.3208 381.275 27.0442 381.575 26.4566C382.014 26.3183 382.487 26.0417 382.799 25.4541C383.226 25.3273 383.699 25.0508 384.011 24.4631C384.438 24.3248 384.899 24.0483 385.211 23.4721C385.396 23.426 385.58 23.3454 385.742 23.2301C385.823 23.1841 385.892 23.138 385.95 23.0804C385.996 23.0573 386.042 23.0227 386.088 22.9766C386.1 22.9651 386.123 22.9421 386.123 22.919C386.146 22.9075 386.146 22.896 386.169 22.8729C386.181 22.8499 386.204 22.8384 386.215 22.8153C386.296 22.7231 386.365 22.6194 386.423 22.5157C386.492 22.3775 386.55 22.2277 386.608 22.0663C386.654 21.882 386.7 21.7206 386.723 21.5363V21.5017C386.746 21.3289 386.769 21.1445 386.781 20.9601C386.792 20.7642 386.792 20.5568 386.792 20.3609C386.804 20.1651 386.804 19.9576 386.804 19.7387C386.781 17.7913 386.792 15.6135 386.804 13.3781C386.827 9.62161 386.862 5.7384 386.677 2.67331L386.642 2.45438C386.481 1.85519 386.169 1.49798 385.823 1.30209C385.477 1.1062 385.107 1.04858 384.853 1.04858C384.784 1.03706 384.715 1.03706 384.669 1.03706H384.542C382.533 1.07163 377.351 1.04858 371.349 1.02554C361.827 0.99097 351.024 0.944878 348.912 1.12924L348.577 1.17534H348.554L348.277 1.39427L347.873 1.67082V1.69387L347.838 2.2124V2.27001L347.584 2.29306L346.892 2.80006L346.857 3.34164V3.38773L346.603 3.4223L345.911 3.92931L345.876 4.45936C345.876 4.45936 345.865 4.49393 345.865 4.51697L345.611 4.54002L344.918 5.05855L344.884 5.5886V5.63469L344.653 5.66926L343.937 6.15322L343.903 6.70632V6.76394L343.649 6.78698L342.956 7.30551L342.91 7.83557V7.88166L342.645 7.91623L341.964 8.43476L341.929 8.95329V9.0109L341.663 9.03395L340.982 9.55248L340.948 10.0825V10.1286L340.682 10.1632L339.99 10.6817L339.955 11.2003V11.2579L339.713 11.2809L339.009 11.7764L338.974 12.3295V12.3756L338.709 12.4102L338.028 12.9402L337.993 13.4472V13.5048L337.739 13.5394L337.047 14.0349L337.001 14.5765V14.6225L336.735 14.6571L336.054 15.1872L336.019 15.7057V15.7518L335.766 15.7748L335.073 16.2818L335.038 16.8234C335.038 16.8234 335.038 16.858 335.027 16.8695L334.773 16.9041L334.092 17.4111L334.046 17.9411V17.9988L333.792 18.0218L333.099 18.5403L333.065 19.0704V19.1165L332.811 19.151L332.118 19.6581L332.084 20.1881C332.084 20.1881 332.084 20.2227 332.072 20.2457L331.818 20.2688L331.126 20.7873L331.091 21.3173V21.3634L330.826 21.398L330.145 21.9165L330.11 22.4351V22.4927L329.868 22.5273L329.164 23.0112L329.129 23.5643C329.129 23.5643 329.129 23.5989 329.117 23.6104L328.863 23.645L328.171 24.1635L328.136 24.6936V24.7396L327.894 24.7627L327.698 24.901C327.732 19.5198 327.744 14.5765 327.709 10.6587C327.709 9.88664 327.698 9.17222 327.686 8.50389C327.675 7.5014 327.652 6.60262 327.628 5.79602C327.628 5.53099 327.617 5.27748 327.605 5.0355C327.594 4.85114 327.594 4.66677 327.582 4.49393C327.571 4.03301 327.548 3.64123 327.513 3.29555C327.478 2.76549 327.432 2.37372 327.386 2.10869L327.236 1.52102L326.763 1.27904L326.532 1.16381H326.324C326.105 1.12924 325.863 1.11772 325.597 1.09468C325.332 1.08315 325.055 1.07163 324.743 1.06011C324.662 1.06011 324.57 1.06011 324.489 1.06011C324.131 1.04858 323.75 1.03706 323.358 1.02554H323.023C322.619 1.01402 322.204 1.01402 321.777 1.01402C320.565 1.00249 319.249 1.01402 317.945 1.02554C317.576 1.02554 317.195 1.02554 316.825 1.03706H315.694C315.14 1.04858 314.598 1.04858 314.067 1.06011C312.243 1.08315 310.627 1.08315 309.681 1.04858H309.45C309.45 1.04858 309.392 1.07163 309.358 1.07163C309.335 1.07163 309.312 1.07163 309.265 1.07163C309.104 1.07163 308.942 1.07163 308.804 1.1062C308.7 1.11772 308.596 1.14077 308.504 1.16381C308.457 1.18686 308.423 1.19838 308.377 1.2099C308.261 1.256 308.146 1.30209 308.053 1.3597C307.984 1.40579 307.915 1.45189 307.857 1.5095C307.823 1.53255 307.788 1.57864 307.753 1.61321C307.696 1.67082 307.649 1.72843 307.615 1.78605C307.557 1.86671 307.511 1.94737 307.488 2.02803C307.453 2.09717 307.43 2.1663 307.407 2.23544C307.384 2.29306 307.372 2.36219 307.361 2.41981C306.922 2.69636 306.703 3.1227 306.622 3.54905C306.195 3.81408 305.976 4.25195 305.895 4.66677C305.468 4.94332 305.237 5.36967 305.168 5.79602C304.741 6.06104 304.51 6.49891 304.441 6.91374C304.002 7.19028 303.783 7.62815 303.714 8.0545C303.298 8.308 303.056 8.72283 302.987 9.1607C302.548 9.43725 302.317 9.87512 302.248 10.2899C301.832 10.555 301.601 10.9813 301.521 11.4192C301.105 11.6842 300.863 12.099 300.794 12.5369C300.378 12.8019 300.136 13.2283 300.066 13.6661C299.651 13.9312 299.409 14.346 299.339 14.7839C298.924 15.0489 298.681 15.4637 298.612 15.9131C298.197 16.1666 297.954 16.593 297.873 17.0308C297.458 17.2959 297.227 17.7107 297.146 18.1486C296.731 18.4136 296.488 18.8399 296.419 19.2778C296.004 19.5428 295.761 19.9576 295.692 20.3955C295.45 20.5568 295.277 20.7527 295.138 20.9832C295.046 20.4301 294.953 19.9 294.873 19.37C294.838 19.1856 294.815 19.0128 294.78 18.8399C294.63 17.9411 294.492 17.0654 294.353 16.2012C294.215 15.4522 294.099 14.7147 293.984 13.9888C293.903 13.5164 293.822 13.0554 293.753 12.5945C293.638 11.9262 293.522 11.2694 293.43 10.6472C293.361 10.2323 293.291 9.82903 293.222 9.44877C293.118 8.79197 293.014 8.16973 292.91 7.59359C292.876 7.3977 292.853 7.21333 292.818 7.04049C292.807 6.9483 292.795 6.85612 292.772 6.77546C292.726 6.51043 292.691 6.25693 292.645 6.01495C292.587 5.66926 292.541 5.34662 292.483 5.04703C292.449 4.79352 292.403 4.57459 292.368 4.35565C292.195 3.33012 292.079 2.65027 292.022 2.38524L291.987 2.22392C291.883 1.94737 291.745 1.72843 291.549 1.54407C291.456 1.45189 291.352 1.37123 291.225 1.31361C291.11 1.256 290.971 1.19838 290.833 1.16381C290.417 1.04858 289.886 1.04858 288.928 1.04858H288.582C286.747 1.03706 283.608 1.04858 280.33 1.04858C276.821 1.06011 273.174 1.06011 270.831 1.04858H270.704C270.6 1.07163 270.508 1.07163 270.415 1.07163C270 1.06011 269.238 1.06011 268.661 1.84366L268.499 2.1663C268.476 2.23544 268.453 2.3161 268.43 2.41981C268.407 2.51199 268.384 2.60417 268.361 2.73093C268.349 2.73093 268.349 2.75397 268.349 2.77702C268.28 2.83463 268.234 2.89225 268.176 2.96138L268.015 3.28402C267.968 3.4223 267.922 3.61819 267.865 3.88322C267.807 3.95235 267.749 4.00997 267.703 4.09063L267.588 4.24043L267.53 4.41327C267.484 4.54002 267.437 4.74743 267.38 5.01246C267.322 5.07007 267.264 5.13921 267.218 5.20835L267.045 5.53099C267.01 5.65774 266.953 5.86515 266.907 6.13018C266.837 6.18779 266.78 6.25693 266.733 6.33759L266.572 6.66023C266.526 6.78698 266.479 6.98287 266.422 7.2479L266.249 7.45531L266.087 7.77795C266.041 7.9047 265.995 8.11212 265.937 8.37714C265.879 8.43476 265.822 8.50389 265.764 8.57303L265.602 8.89567C265.556 9.02242 265.51 9.22984 265.452 9.49486C265.395 9.564 265.337 9.62161 265.291 9.70228L265.118 10.0249C265.083 10.1517 265.025 10.3591 264.979 10.6126C264.91 10.6817 264.864 10.7509 264.806 10.82L264.69 10.9698L264.633 11.1426C264.598 11.2694 264.552 11.4768 264.494 11.7418C264.437 11.7994 264.367 11.8686 264.321 11.9492L264.16 12.2604C264.113 12.3986 264.067 12.5945 264.01 12.8595C263.952 12.9287 263.894 12.9978 263.836 13.067L263.675 13.3896C263.629 13.5164 263.582 13.7238 263.525 13.9888C263.467 14.0464 263.409 14.1155 263.363 14.1847L263.248 14.3345L263.19 14.5073C263.155 14.6456 263.098 14.8415 263.052 15.1065C262.982 15.1756 262.925 15.2448 262.878 15.3139L262.717 15.625C262.671 15.7633 262.625 15.9592 262.567 16.2358C262.509 16.2934 262.451 16.3625 262.394 16.4316L262.29 16.5814L262.232 16.7543C262.186 16.881 262.14 17.0884 262.082 17.3535C262.024 17.4111 261.967 17.4802 261.909 17.5609L261.747 17.872C261.701 17.9988 261.655 18.2062 261.597 18.4712C261.54 18.5403 261.482 18.6095 261.424 18.6786L261.263 19.0012C261.228 19.128 261.17 19.3354 261.124 19.6004C261.055 19.6581 260.997 19.7272 260.951 19.7963L260.778 20.119C260.743 20.2457 260.697 20.4531 260.639 20.7182C260.57 20.7873 260.512 20.8564 260.466 20.9256L260.305 21.2482C260.258 21.375 260.212 21.5709 260.155 21.8359C260.097 21.905 260.039 21.9742 259.981 22.0433L259.82 22.3659C259.774 22.4927 259.727 22.7001 259.67 22.9651C259.612 23.0227 259.554 23.0919 259.497 23.161L259.335 23.4837C259.3 23.6104 259.243 23.8178 259.197 24.0828C259.127 24.152 259.07 24.2211 259.012 24.2903L258.85 24.6129C258.816 24.7396 258.758 24.9355 258.712 25.2121C258.643 25.2697 258.585 25.3388 258.539 25.408L258.366 25.7306C258.331 25.8574 258.285 26.0648 258.227 26.3298C258.169 26.3874 258.112 26.4566 258.054 26.5372L257.892 26.8599C257.846 26.9866 257.8 27.1825 257.742 27.4475C257.685 27.5167 257.627 27.5858 257.569 27.6549L257.408 27.9776C257.361 28.1043 257.315 28.3002 257.258 28.5768C257.2 28.6344 257.142 28.7035 257.084 28.7842L256.923 29.0953C256.888 29.2221 256.83 29.4295 256.784 29.6945C256.715 29.7636 256.657 29.8328 256.611 29.9019L256.496 30.0517L256.438 30.2245C256.403 30.3513 256.357 30.5472 256.3 30.8237C256.242 30.8813 256.184 30.9505 256.126 31.0311L255.965 31.3423C255.919 31.469 255.872 31.6764 255.815 31.9415L255.642 32.1489L255.48 32.4715C255.434 32.5867 255.388 32.7941 255.33 33.0592C255.272 33.1283 255.215 33.1974 255.168 33.2666L255.053 33.4164L254.995 33.5892C254.961 33.716 254.903 33.9119 254.857 34.1884C254.788 34.246 254.73 34.3152 254.684 34.3958L254.511 34.7069C254.464 34.8567 254.418 35.0411 254.372 35.3061C254.303 35.3753 254.245 35.4444 254.199 35.5135L254.037 35.8362C253.991 35.9745 253.945 36.1588 253.887 36.4354C253.83 36.493 253.772 36.5621 253.714 36.6313L253.553 36.9539C253.506 37.0807 253.46 37.2881 253.403 37.5531C253.345 37.6222 253.287 37.6914 253.229 37.7605L253.068 38.0831C253.022 38.2214 252.975 38.4058 252.929 38.6823C252.86 38.74 252.802 38.8091 252.756 38.8782L252.583 39.2009C252.548 39.3276 252.502 39.5235 252.445 39.8001C252.375 39.8577 252.318 39.9268 252.271 40.0075L252.11 40.3186C252.064 40.4684 252.017 40.6412 251.96 40.9178C251.902 40.9869 251.844 41.0561 251.787 41.1252L251.625 41.4478C251.579 41.5746 251.533 41.7705 251.475 42.047C251.417 42.1046 251.36 42.1738 251.302 42.2429L251.14 42.5656C251.094 42.7154 251.048 42.8882 251.002 43.1647C250.967 43.1878 250.944 43.2224 250.921 43.2454C250.817 43.1071 250.713 42.9804 250.598 42.8421C249.848 41.9088 249.017 41.0215 248.116 40.1803C248.243 39.9268 248.324 39.6618 248.37 39.4083C248.566 39.1087 248.682 38.763 248.74 38.4404C248.936 38.1408 249.051 37.7951 249.109 37.4724C249.317 37.1728 249.421 36.8272 249.478 36.5045C249.686 36.2049 249.79 35.8592 249.848 35.5481C250.055 35.237 250.159 34.8913 250.217 34.5687C250.425 34.2691 250.529 33.9234 250.586 33.6123C250.794 33.3012 250.898 32.9555 250.967 32.6443C251.163 32.3332 251.267 31.9875 251.337 31.6764C251.533 31.3653 251.637 31.0196 251.706 30.7085C251.902 30.3974 252.017 30.0517 252.075 29.7406C252.271 29.4295 252.387 29.0838 252.445 28.7727C252.629 28.4731 252.745 28.1389 252.802 27.8508C253.16 27.3438 253.287 26.6064 253.31 25.6039C253.31 25.4425 253.322 25.2697 253.322 25.0969C253.333 24.682 253.333 24.2211 253.322 23.7141V17.9527C253.322 14.9798 253.322 12.0184 253.31 10.1171C253.276 8.99938 253.195 7.82404 252.606 6.78698L252.479 6.62566C249.917 3.58362 245.462 2.12021 241.491 0.99097C240.025 0.587669 238.571 0.311119 237.14 0.161322C236.69 0.11523 236.251 0.0691385 235.813 0.0576156C235.12 0.011524 234.439 0.011524 233.77 0.0345698C231.311 0.103707 228.957 0.576146 226.764 1.44036C226.521 1.53255 226.279 1.62473 226.037 1.72843C225.794 1.83214 225.563 1.94737 225.321 2.05108C224.929 2.23544 224.548 2.44285 224.167 2.65027C223.855 2.82311 223.555 2.99595 223.255 3.19184C223.07 3.30707 222.886 3.4223 222.701 3.54905C222.632 3.59514 222.574 3.64123 222.505 3.68733C222.251 3.86017 221.997 4.04454 221.755 4.2289C221.397 4.49393 221.062 4.77048 220.727 5.05855C220.439 5.30053 220.162 5.56556 219.885 5.83058C218.061 7.57054 216.538 9.65618 215.337 12.0184C215.187 12.3064 215.037 12.606 214.899 12.9172C214.876 12.9633 214.853 13.0093 214.841 13.0554C214.645 13.4703 214.46 13.8851 214.299 14.323C214.114 14.7839 213.941 15.2563 213.779 15.7287C213.618 16.2127 213.468 16.6967 213.329 17.1922C213.202 17.6646 213.075 18.1486 212.971 18.6325C212.948 18.6901 212.937 18.7593 212.925 18.8169C212.821 19.2893 212.717 19.7618 212.637 20.2572C212.544 20.7758 212.463 21.3058 212.394 21.8474C212.348 22.1124 212.313 22.3775 212.29 22.654L212.267 22.7923C212.233 23.0804 212.186 23.3684 212.163 23.6334L212.14 23.7717C212.106 24.0713 212.059 24.3594 212.025 24.7396C211.979 25.0392 211.944 25.3504 211.909 25.6269V25.7537C211.852 26.0533 211.817 26.3529 211.771 26.7101C211.725 27.0212 211.69 27.3323 211.655 27.6204V27.7471C211.598 28.0467 211.563 28.3463 211.517 28.669C211.482 28.9916 211.436 29.3142 211.402 29.6138V29.7406C211.344 30.0402 211.309 30.3398 211.275 30.6509C211.228 30.9735 211.182 31.2962 211.136 31.688C211.101 31.9991 211.055 32.3102 211.021 32.6443C210.974 32.967 210.928 33.2896 210.894 33.6007C210.848 33.9349 210.801 34.2691 210.767 34.6263C210.721 34.9604 210.674 35.2831 210.64 35.5942C210.594 35.9284 210.547 36.2625 210.513 36.6197C210.467 36.9424 210.42 37.2765 210.397 37.5646C210.34 37.9103 210.294 38.2445 210.27 38.5556C210.224 38.9013 210.178 39.247 210.143 39.5581C210.097 39.9038 210.04 40.2379 210.017 40.549C209.97 40.8947 209.924 41.2404 209.89 41.5515C209.843 41.8857 209.797 42.2314 209.763 42.5425C209.716 42.8882 209.67 43.2224 209.636 43.5335C209.589 43.8792 209.543 44.2249 209.509 44.536C209.462 44.8701 209.416 45.2158 209.382 45.5269C209.336 45.8726 209.289 46.2068 209.255 46.5179C209.209 46.8636 209.162 47.2093 209.128 47.5204C209.082 47.8546 209.035 48.2002 209.001 48.5114C208.955 48.8571 208.908 49.1912 208.874 49.5023C208.828 49.848 208.782 50.1937 208.747 50.5048C208.701 50.839 208.655 51.1847 208.62 51.4958C208.574 51.8415 208.528 52.1756 208.493 52.4868C208.447 52.8325 208.401 53.1781 208.366 53.4893C208.32 53.8234 208.274 54.1691 208.239 54.4802C208.193 54.8259 208.147 55.1716 208.112 55.4712C208.066 55.8169 208.02 56.1626 207.985 56.4737C207.939 56.8194 207.893 57.1535 207.858 57.4647C207.812 57.8103 207.766 58.156 207.743 58.4556C207.685 58.8013 207.639 59.147 207.616 59.4581C207.558 59.8038 207.512 60.138 207.489 60.4491C207.431 60.7948 207.385 61.1405 207.362 61.44C207.304 61.7857 207.258 62.1314 207.235 62.4425C207.177 62.7767 207.131 63.1224 207.108 63.4335C207.05 63.7792 207.004 64.1249 206.981 64.4245C206.923 64.7702 206.889 65.1159 206.854 65.427C206.808 65.7727 206.762 66.1183 206.727 66.4179C206.681 66.7636 206.635 67.1093 206.6 67.4089C206.554 67.7546 206.508 68.1003 206.473 68.4114C206.427 68.7571 206.381 69.1028 206.346 69.4024C206.3 69.7481 206.254 70.0937 206.219 70.4049C206.173 70.739 206.127 71.0847 206.092 71.3958C206.046 71.7415 206 72.0872 205.965 72.3868C205.919 72.7325 205.873 73.0782 205.838 73.3778C205.792 73.7234 205.746 74.0691 205.711 74.3803C205.665 74.726 205.619 75.0716 205.584 75.3712C205.538 75.7169 205.492 76.0626 205.457 76.3622C205.411 76.7079 205.365 77.0536 205.33 77.3647C205.284 77.7104 205.238 78.0561 205.204 78.3557C205.157 78.7013 205.111 79.047 205.077 79.3466C205.03 79.6923 204.984 80.0495 204.95 80.3491C204.903 80.6948 204.857 81.0405 204.834 81.3401C204.776 81.6858 204.73 82.0315 204.707 82.3311C204.65 82.6767 204.603 83.034 204.58 83.3335C204.523 83.6792 204.476 84.0249 204.453 84.3245C204.396 84.6702 204.349 85.0159 204.326 85.3155C204.269 85.6612 204.222 86.0184 204.199 86.318C204.142 86.6637 204.096 87.0093 204.072 87.3089C204.015 87.6546 203.969 88.0003 203.945 88.2999C203.888 88.6456 203.842 89.0028 203.818 89.3024C203.761 89.6481 203.715 89.9938 203.692 90.2934C203.634 90.6391 203.599 90.9847 203.565 91.2843C203.507 91.63 203.472 91.9872 203.438 92.2868C203.38 92.6325 203.345 92.9782 203.311 93.2778C203.253 93.6235 203.218 93.9807 203.184 94.2688C203.126 94.6605 203.08 95.0639 203.045 95.4095C203.022 95.5478 203.011 95.6976 202.999 95.8359V95.9742C202.941 96.2507 202.907 96.5503 202.872 96.8384V96.9767C202.814 97.2532 202.78 97.5413 202.745 97.8293V97.9791C202.676 98.2672 202.641 98.5553 202.618 98.8549L202.595 98.9932C202.549 99.2697 202.514 99.5693 202.491 99.8574L202.468 99.9956C202.422 100.284 202.387 100.595 202.353 100.894V100.998C202.295 101.286 202.26 101.597 202.226 101.897V102.012C202.168 102.312 202.133 102.623 202.099 102.934V103.015C202.041 103.314 202.006 103.625 201.972 103.925V104.017C201.903 104.328 201.868 104.651 201.833 104.974V105.031C201.776 105.331 201.741 105.653 201.706 105.976V106.034C201.649 106.345 201.614 106.667 201.579 107.036C201.522 107.347 201.487 107.681 201.452 108.05C201.395 108.361 201.36 108.695 201.325 109.053C201.268 109.375 201.233 109.709 201.198 110.055C201.129 110.389 201.095 110.746 201.06 111.069C201.002 111.415 200.968 111.784 200.933 112.072C200.875 112.417 200.841 112.775 200.806 113.074C200.748 113.431 200.714 113.8 200.679 114.077C200.621 114.434 200.575 114.803 200.552 115.091C200.494 115.436 200.448 115.805 200.425 116.093C200.367 116.45 200.321 116.819 200.298 117.096C200.241 117.453 200.194 117.822 200.171 118.11C200.102 118.455 200.067 118.824 200.044 119.112C199.975 119.469 199.94 119.838 199.917 120.115C199.848 120.472 199.813 120.841 199.79 121.129C199.721 121.474 199.675 121.843 199.652 122.131C199.398 123.56 199.375 125.104 199.571 126.706C199.756 128.261 200.148 129.563 200.806 130.75C200.806 130.808 200.795 130.865 200.795 130.935C200.725 131.142 200.679 131.384 200.656 131.684C200.587 131.891 200.552 132.145 200.529 132.444C200.46 132.652 200.414 132.893 200.402 133.193C200.333 133.412 200.287 133.654 200.275 133.954C200.183 134.196 200.148 134.461 200.137 134.714C200.056 134.956 200.021 135.21 200.01 135.475C199.929 135.717 199.894 135.982 199.871 136.247C199.721 136.685 199.744 137.226 199.756 137.814C199.767 138.056 199.767 138.275 199.756 138.551V140.556C199.756 141.674 199.756 142.734 199.767 143.345C199.756 144.854 200.702 145.523 201.152 145.845C203.091 147.239 205.4 148 207.754 148.023H208.193L256.934 147.689H262.509C262.728 147.677 263.294 147.62 263.64 147.09H263.709C263.859 147.09 264.483 147.055 264.852 146.514H264.933C265.094 146.514 265.695 146.479 266.064 145.926H266.145C266.306 145.926 266.907 145.891 267.287 145.35H267.357C267.518 145.35 268.13 145.304 268.499 144.762H268.569C268.73 144.762 269.342 144.728 269.711 144.174H269.78C269.942 144.174 270.554 144.14 270.935 143.598H270.992C271.165 143.598 271.766 143.552 272.147 143.011H272.216C272.377 143.011 272.989 142.976 273.37 142.434H273.428C273.589 142.434 274.201 142.388 274.582 141.847H274.64C274.801 141.847 275.413 141.812 275.794 141.259H275.852C276.013 141.259 276.625 141.225 277.017 140.683H277.063C277.063 140.683 277.814 140.66 278.218 140.095H278.275C278.379 140.095 279.026 140.072 279.441 139.508H279.487C279.603 139.508 280.249 139.485 280.653 138.931H280.711C280.803 138.931 281.461 138.908 281.865 138.344H281.923C282.026 138.344 282.673 138.321 283.088 137.756H283.134C283.238 137.756 283.885 137.733 284.3 137.18H284.346C284.416 137.122 285.097 137.157 285.512 136.592H285.558C285.662 136.592 286.308 136.569 286.724 136.005H286.77C286.874 135.982 287.532 135.993 287.947 135.429H287.982C288.086 135.429 288.744 135.405 289.159 134.841H289.194C289.286 134.852 289.956 134.829 290.371 134.265H290.417C290.51 134.265 291.168 134.242 291.595 133.677H291.618C291.745 133.642 292.38 133.654 292.807 133.089H292.841C293.003 133.089 293.626 133.055 294.03 132.513H294.053C294.169 132.502 294.815 132.49 295.23 131.926H295.265C295.427 131.926 296.05 131.891 296.454 131.349H296.477C296.65 131.349 297.273 131.303 297.677 130.762H297.689C297.862 130.762 298.485 130.716 298.889 130.174H298.901C299.074 130.174 299.697 130.14 300.101 129.598H300.124C300.286 129.598 300.909 129.552 301.313 129.01H301.336C301.498 129.01 302.121 128.976 302.536 128.423C302.698 128.423 303.321 128.388 303.737 127.846H303.748C303.91 127.846 304.545 127.8 304.949 127.259H305.029C305.26 127.259 305.803 127.167 306.172 126.671C306.345 126.671 306.968 126.637 307.384 126.095C307.811 126.083 308.273 125.922 308.596 125.507H308.607C309.011 125.507 309.485 125.346 309.819 124.92C310.235 124.92 310.708 124.758 311.031 124.344C311.458 124.344 311.932 124.171 312.255 123.756C312.67 123.756 313.132 123.595 313.455 123.18C313.894 123.18 314.367 123.007 314.679 122.592C315.117 122.592 315.579 122.419 315.902 122.004C316.329 122.004 316.791 121.832 317.114 121.428C317.541 121.428 318.003 121.255 318.326 120.841C318.753 120.841 319.226 120.668 319.538 120.253C319.976 120.253 320.438 120.08 320.761 119.677C321.188 119.665 321.65 119.504 321.973 119.089C322.4 119.089 322.862 118.916 323.185 118.513C323.612 118.501 324.085 118.329 324.408 117.925C324.835 117.914 325.297 117.752 325.62 117.338C326.047 117.338 326.509 117.165 326.832 116.761C327.259 116.75 327.721 116.577 328.044 116.174C328.471 116.174 328.933 116.001 329.267 115.586C329.695 115.586 330.156 115.413 330.479 115.01C330.906 114.998 331.368 114.826 331.691 114.422C332.118 114.411 332.58 114.249 332.915 113.835C333.33 113.835 333.803 113.662 334.127 113.258C334.554 113.247 335.015 113.074 335.339 112.671C335.766 112.659 336.227 112.498 336.562 112.095C336.977 112.083 337.439 111.91 337.774 111.507C338.201 111.495 338.663 111.323 338.986 110.919C339.413 110.919 339.874 110.747 340.198 110.343C340.625 110.343 341.086 110.159 341.421 109.756C341.837 109.744 342.298 109.571 342.633 109.168C343.06 109.156 343.522 108.995 343.845 108.592C344.272 108.58 344.734 108.407 345.068 108.004C345.484 107.993 345.945 107.82 346.28 107.416C346.707 107.405 347.157 107.232 347.492 106.84C347.919 106.817 348.381 106.656 348.716 106.253C349.131 106.241 349.593 106.068 349.927 105.665C350.343 105.653 350.805 105.481 351.139 105.089C351.566 105.066 352.028 104.904 352.351 104.501C352.778 104.501 353.24 104.317 353.575 103.925C353.99 103.902 354.452 103.729 354.787 103.337C355.214 103.314 355.664 103.153 355.999 102.75C356.426 102.738 356.887 102.565 357.222 102.173C357.637 102.15 358.099 101.978 358.434 101.586C358.849 101.563 359.311 101.401 359.646 100.998C360.073 100.987 360.523 100.814 360.869 100.422C361.285 100.399 361.746 100.226 362.081 99.8343C362.497 99.8113 362.958 99.65 363.293 99.2467C363.72 99.2467 364.17 99.0623 364.516 98.6705C364.932 98.6475 365.394 98.4746 365.728 98.0828C366.144 98.0598 366.606 97.887 366.94 97.5067C367.356 97.4837 367.817 97.3108 368.152 96.919C368.579 96.896 369.029 96.7231 369.376 96.3314C369.872 96.3083 370.287 96.1009 370.587 95.7552C371.084 95.7206 371.511 95.5248 371.811 95.1675C372.296 95.1445 372.723 94.9371 373.023 94.5799C373.519 94.5568 373.935 94.3494 374.235 94.0037C374.731 93.9692 375.147 93.7733 375.447 93.4161C375.943 93.393 376.358 93.1856 376.67 92.8284C377.155 92.8054 377.582 92.5979 377.882 92.2523C378.378 92.2177 378.794 92.0218 379.094 91.6646C379.59 91.6416 380.006 91.4341 380.306 91.0769C380.802 91.0539 381.218 90.8465 381.529 90.5008C382.014 90.4662 382.441 90.2703 382.741 89.9131C383.237 89.8901 383.653 89.6827 383.953 89.337C384.449 89.3024 384.865 89.095 385.165 88.7493C385.234 88.7493 385.292 88.7378 385.35 88.7263H385.396C385.477 88.7147 385.557 88.6917 385.638 88.6686C386.919 88.2884 386.942 86.6406 386.954 85.9723V85.6381C386.977 82.6076 386.989 72.7094 386.954 69.2756L386.977 69.2526ZM215.153 19.4852C215.164 19.37 215.199 19.2548 215.222 19.151C215.291 18.8169 215.383 18.4827 215.476 18.1601C215.499 18.0333 215.534 17.9066 215.568 17.7798C215.66 17.4687 215.741 17.1576 215.845 16.858C215.891 16.7082 215.938 16.5699 215.984 16.4316C216.099 16.086 216.226 15.7403 216.353 15.4061C216.376 15.337 216.399 15.2678 216.434 15.1987C216.549 14.8991 216.676 14.588 216.803 14.2999C217.438 12.848 218.188 11.4998 219.077 10.2784C219.458 9.72532 219.862 9.20679 220.3 8.71131C220.866 8.0545 221.478 7.44379 222.124 6.87917C222.159 6.8446 222.205 6.81003 222.239 6.77546C222.47 6.57957 222.713 6.38368 222.955 6.19932C223.255 5.94581 223.578 5.71535 223.901 5.50794C224.098 5.36967 224.294 5.24292 224.49 5.12769C224.686 4.98941 224.882 4.87418 225.09 4.75896C225.448 4.55154 225.806 4.36718 226.175 4.18281C227.653 3.47991 229.222 2.96138 230.861 2.65027C231.265 2.58113 231.681 2.51199 232.096 2.45438C234.139 2.20087 236.274 2.25849 238.467 2.63874C238.479 2.63874 238.49 2.63874 238.502 2.63874C238.964 2.7194 239.437 2.81159 239.898 2.92682C240.222 2.99595 240.556 3.07661 240.88 3.1688C243.661 3.96388 248.301 5.28901 250.656 7.98536C250.944 8.56151 250.99 9.35659 251.013 10.1171C251.025 11.9953 251.025 14.9567 251.025 17.9181V23.7026C251.036 24.5438 251.036 25.4656 250.99 26.0417C250.829 25.938 250.621 25.7998 250.355 25.6039C247.054 23.0573 238.687 18.5058 233.885 20.6605C232.5 21.2828 230.815 22.7347 230.584 26.1454V26.2146V26.2952C230.838 30.478 234.543 33.0131 237.521 35.0411C237.983 35.3638 238.433 35.6633 238.871 35.986C241.053 37.4379 243.373 39.0396 245.416 40.8026C245.623 40.9754 245.819 41.1482 246.004 41.3326C246.2 41.5054 246.397 41.6783 246.581 41.8627C246.766 42.0355 246.951 42.2083 247.124 42.3927C247.47 42.7269 247.793 43.0726 248.116 43.4298C248.705 44.0866 249.247 44.778 249.709 45.4809C249.986 45.8842 250.252 46.299 250.494 46.7484C250.517 46.7714 250.529 46.806 250.54 46.829C252.41 50.1476 253.587 54.6646 253.83 59.5503C254.58 71.6493 250.771 80.6602 243.084 84.9122C235.593 89.0604 225.483 87.9773 217.323 82.1467C215.903 81.1327 215.28 80.4067 215.28 78.7129C215.257 76.9844 215.257 74.0576 215.257 70.981C215.257 69.1028 215.257 67.1669 215.257 65.5076C215.314 64.8624 215.291 64.0673 215.257 63.2261C215.245 62.6615 215.222 61.8664 215.245 61.2442C220.67 65.6459 226.822 70.0131 232.639 69.5637H232.754C234.716 69.4024 236.344 68.227 237.209 66.3373C238.294 63.9751 237.948 61.0483 236.286 58.8128C233.931 55.9897 230.907 53.9386 227.987 51.9567C224.629 49.6752 221.466 47.5319 219.238 44.3055C216.722 40.8602 215.326 37.0691 214.714 32.0221C214.287 28.5537 214.287 25.2582 214.679 22.1931C214.737 21.7667 214.795 21.3404 214.864 20.9256C214.887 20.7988 214.91 20.6605 214.933 20.5338C215.003 20.1766 215.072 19.8194 215.153 19.4737V19.4852ZM270.461 4.06758C270.496 3.88322 270.519 3.72189 270.554 3.5721C270.565 3.49144 270.577 3.4223 270.588 3.35316C270.681 3.35316 270.785 3.34164 270.888 3.33012C273.232 3.34164 276.856 3.34164 280.341 3.33012C283.608 3.33012 286.759 3.31859 288.594 3.33012H288.94C289.275 3.33012 289.609 3.33012 289.863 3.34164C289.91 3.59514 289.967 3.91778 290.037 4.30956C290.06 4.44784 290.083 4.57459 290.106 4.72439C290.221 5.40424 290.36 6.24541 290.521 7.21333C290.556 7.36313 290.579 7.52445 290.602 7.67425C290.671 8.0545 290.729 8.4578 290.798 8.8611C290.879 9.3105 290.96 9.78294 291.041 10.2669C291.098 10.6126 291.156 10.9698 291.214 11.3385C291.248 11.5229 291.283 11.7188 291.306 11.9147C291.652 13.9888 292.045 16.351 292.472 18.9091C292.795 20.9371 293.13 22.9536 293.441 24.8318L293.603 25.7882C294.723 32.6789 296.004 40.4338 297.262 48.1081C299.87 63.9405 302.409 79.3697 303.494 85.8686C303.529 86.076 303.564 86.2604 303.587 86.4332H301.798C297.885 86.4447 290.602 86.4563 288.155 86.4217C288.04 86.4217 287.982 86.4102 287.971 86.4102C287.797 86.2258 287.659 85.2463 287.578 84.7048C287.428 83.9443 287.313 82.7804 287.186 81.5475C286.932 78.9894 286.678 76.3507 285.905 74.8988L285.628 74.5301C284.877 73.7926 283.965 73.758 283.296 73.7234H281.749C279.96 73.7004 277.744 73.6889 276.382 73.7234C275.701 73.7811 274.432 73.8963 273.762 75.1753L273.693 75.3251C273.081 77.019 272.828 79.4158 272.585 81.7434C272.447 83.0916 272.32 84.3591 272.123 85.3155L272.1 85.4538C272.043 85.7534 271.95 86.2719 271.893 86.3525C271.777 86.4102 271.35 86.4217 271.235 86.4332C269.804 86.3756 267.738 86.4102 265.556 86.4332C262.578 86.4793 259.254 86.5139 256.98 86.3756C257.661 80.8331 260.951 61.2903 264.136 42.3351C266.445 28.5883 268.626 15.602 269.769 8.25039C269.977 7.05201 270.138 6.01495 270.277 5.16226C270.334 4.79352 270.392 4.44784 270.438 4.13672C270.45 4.10215 270.45 4.0791 270.45 4.05606L270.461 4.06758ZM314.078 3.35316C314.609 3.35316 315.175 3.34164 315.752 3.34164C316.56 3.33012 317.402 3.31859 318.233 3.30707C320.876 3.28402 323.485 3.28402 325.216 3.37621C325.228 3.50296 325.239 3.64123 325.251 3.79103V3.83712C325.262 3.95235 325.262 4.09063 325.274 4.21738C325.297 4.62068 325.309 5.0816 325.32 5.5886C325.332 5.81906 325.343 6.04952 325.343 6.30302C325.343 6.53348 325.366 6.78698 325.366 7.05201C325.366 7.2479 325.378 7.45531 325.378 7.6512C325.389 8.0545 325.389 8.48085 325.389 8.91872C325.401 9.13765 325.401 9.35659 325.401 9.58705C325.459 14.6917 325.424 21.882 325.378 29.3488C325.366 30.9735 325.355 32.5983 325.343 34.223C325.239 49.7904 325.135 64.5051 325.609 67.3398L325.747 68.1925L326.613 68.2962C328.783 68.5497 331.749 68.5036 334.611 68.469C336.423 68.4344 338.282 68.4114 339.886 68.469C340.371 68.4921 340.879 68.469 341.352 68.469C341.837 68.446 342.645 68.4229 342.783 68.446C342.783 68.446 342.806 68.5151 342.783 68.8147C342.841 71.4073 342.829 76.3507 342.818 80.3145C342.806 82.4809 342.806 84.4167 342.806 85.6266V86.0069C342.806 86.1336 342.806 86.2949 342.806 86.4332C336.573 86.4563 327.559 86.4562 319.595 86.4562H309.646C309.658 82.815 309.658 71.4765 309.646 58.0869C309.635 39.005 309.623 15.5213 309.646 4.47088C309.658 4.0791 309.658 3.71037 309.658 3.35316H309.704C310.708 3.38773 312.266 3.38773 314.09 3.36469L314.078 3.35316ZM371.361 3.33012C377.178 3.35316 382.233 3.37621 384.415 3.34164C384.565 6.24541 384.53 9.85207 384.507 13.355C384.484 15.6135 384.472 17.8144 384.507 19.7502C384.507 20.0959 384.507 20.914 384.438 21.2828C384.438 21.2828 384.415 21.2943 384.392 21.2943H384.368C384.368 21.2943 384.322 21.2943 384.288 21.2943C384.138 21.3058 383.918 21.3058 383.641 21.3058H369.664C368.233 21.2828 367.102 21.2482 366.317 22.0087C365.624 22.6655 365.521 23.645 365.509 24.5898C365.451 26.4911 365.463 30.3513 365.497 32.4254C365.544 33.4049 365.624 35.4559 367.552 35.7786C367.748 35.7901 367.956 35.8131 368.164 35.8247L368.556 35.8477C370.461 35.9284 372.688 35.9169 374.858 35.8823C376.439 35.8708 377.997 35.8477 379.405 35.8823H381.968C382.291 35.8823 382.799 35.8823 383.041 35.9284C383.064 36.0436 383.099 36.251 383.11 36.6658C383.133 39.3046 383.134 42.2083 383.134 45.043C383.122 46.8521 383.122 48.6381 383.122 50.2974V50.7238C383.122 51.5995 383.122 52.5098 383.041 52.8785C382.983 52.8901 382.903 52.9016 382.822 52.9016C382.499 52.9362 382.025 52.9246 381.61 52.9246H380.479C379.013 52.9362 377.201 52.9362 375.4 52.9246C372.249 52.9131 369.283 52.9131 367.898 52.9707C365.347 53.109 365.428 55.9321 365.486 57.6145C365.497 58.1791 365.509 58.7091 365.474 59.2622V61.3363C365.474 62.3273 365.474 63.3413 365.486 64.2632H365.463L365.509 65.1504C365.521 65.4615 365.544 65.7496 365.567 66.0262C365.636 66.5677 365.798 67.8353 367.113 68.2616L367.344 68.3192C369.133 68.5151 372.088 68.4805 375.227 68.446C377.259 68.4344 379.359 68.4114 381.16 68.446C381.564 68.4805 382.083 68.446 382.637 68.446C383.191 68.4229 384.161 68.3999 384.634 68.4805C384.669 68.734 384.68 69.1258 384.68 69.2871C384.715 72.6864 384.703 82.573 384.692 85.5575V85.9147C384.68 86.0529 384.68 86.2488 384.669 86.4102C375.4 86.4332 359.184 86.4447 350.043 86.4332C350.089 83.0916 350.066 71.73 350.031 58.6976C349.985 37.7836 349.939 12.318 350.089 4.43631C350.089 4.32108 350.089 4.20586 350.089 4.09063C350.101 3.8256 350.101 3.58362 350.112 3.36469C353.586 3.24946 363.339 3.28402 371.361 3.31859V3.33012Z" fill="#101010"/>
</g>
<defs>
<clipPath id="clip0_4_5059">
<rect width="387" height="148" fill="white"/>
</clipPath>
</defs>
</svg>
